<?xml version="1.0" encoding="utf-8"?>
<!-- Generator: Adobe Illustrator 17.0.0, SVG Export Plug-In . SVG Version: 6.00 Build 0)  -->
<!DOCTYPE svg PUBLIC "-//W3C//DTD SVG 1.1//EN" "http://www.w3.org/Graphics/SVG/1.1/DTD/svg11.dtd">
<svg version="1.1" id="Layer_1" xmlns="http://www.w3.org/2000/svg" xmlns:xlink="http://www.w3.org/1999/xlink" x="0px" y="0px"
	 width="72px" height="44px" viewBox="0 0 72 44" enable-background="new 0 0 72 44" xml:space="preserve">
<path fill="#E0D746" d="M45,26.7c-0.6,1.6-1.4,3-3,3l-12.3,0c-1.6,0-2.3-1.4-3-3l-3.6-9.3c0-1.6,1.4-3,3-3l19.9,0c1.6,0,3,1.4,3,3
	L45,26.7z"/>
<path fill="#FFFFFF" d="M40,20.7c-0.3,0.7-0.6,1.3-1.3,1.3l-5.4,0c-0.7,0-1-0.6-1.3-1.3l-1.6-4.1c0-0.7,0.6-1.3,1.3-1.3l8.8,0
	c0.7,0,1.3,0.6,1.3,1.3L40,20.7z"/>
<rect x="217.1" y="65.8" transform="matrix(-1 -2.282768e-003 2.282768e-003 -1 453.7269 151.7691)" fill="#7E6892" width="19.6" height="19.6"/>
</svg>
