<?xml version="1.0" encoding="utf-8"?>
<!-- Generator: Adobe Illustrator 17.0.0, SVG Export Plug-In . SVG Version: 6.00 Build 0)  -->
<!DOCTYPE svg PUBLIC "-//W3C//DTD SVG 1.1//EN" "http://www.w3.org/Graphics/SVG/1.1/DTD/svg11.dtd">
<svg version="1.1" id="Layer_1" xmlns="http://www.w3.org/2000/svg" xmlns:xlink="http://www.w3.org/1999/xlink" x="0px" y="0px"
	 width="72px" height="44px" viewBox="0 0 72 44" enable-background="new 0 0 72 44" xml:space="preserve">
<g>
	<path fill="#5190BA" d="M14.3,28.7c0,0-2.5,2,1.4,4.4l15.6,0c3.9-2.4,1.4-4.4,1.4-4.4s-6.4-5.2-7.9-6.6c-1.5-1.4-2.7,0-2.7,0
		L14.3,28.7z"/>
	<circle fill="#5190BA" cx="23.5" cy="15.2" r="3"/>
</g>
<g enable-background="new    ">
	<path fill="#813E78" d="M60.2,12.6c0,0,3.3-2.6-1.9-5.8l-20.8,0c-5.2,3.2-1.9,5.8-1.9,5.8s8.5,7,10.5,8.9c1.9,1.9,3.5,0,3.5,0
		L60.2,12.6z"/>
	<circle fill="#813E78" cx="47.8" cy="30.7" r="4.1"/>
</g>
<path fill="#E0D746" d="M172.4,80.3c-0.6,1.6-1.4,3-3,3l-12.3,0c-1.6,0-2.3-1.4-3-3l-3.6-9.3c0-1.6,1.4-3,3-3l19.9,0
	c1.6,0,3,1.4,3,3L172.4,80.3z"/>
<path fill="#FFFFFF" d="M167.4,74.3c-0.3,0.7-0.6,1.3-1.3,1.3l-5.4,0c-0.7,0-1-0.6-1.3-1.3l-1.6-4.1c0-0.7,0.6-1.3,1.3-1.3l8.8,0
	c0.7,0,1.3,0.6,1.3,1.3L167.4,74.3z"/>
<g>
	<path fill="#A64441" d="M112.2,69.5c0,0-2.5,2,1.4,4.4l15.6,0c3.9-2.4,1.4-4.4,1.4-4.4s-6.4-5.2-7.8-6.6c-1.5-1.4-2.6,0-2.6,0
		L112.2,69.5z"/>
	
		<rect x="115.7" y="75" transform="matrix(-1 -2.282768e-003 2.282768e-003 -1 243.1222 152.6236)" fill="#A64441" width="12" height="2.3"/>
	
		<rect x="120.4" y="77.8" transform="matrix(-1 -2.282768e-003 2.282768e-003 -1 243.0263 165.0683)" fill="#A64441" width="2.3" height="9.2"/>
	
		<rect x="110.2" y="63.8" transform="matrix(0.7705 -0.6375 0.6375 0.7705 -15.0887 88.0754)" fill="#A64441" width="9.2" height="2.3"/>
	
		<rect x="126.9" y="60.6" transform="matrix(0.641 -0.7676 0.7676 0.641 -4.0414 121.7282)" fill="#A64441" width="2.3" height="9.2"/>
	<polygon fill="#A64441" points="111.5,76 112.9,76 114.5,78 115.7,78 117.3,82.4 118.4,82.4 119.2,83.7 119.2,87 114.8,87.2 
		111.4,81.3 	"/>
	<polygon fill="#A64441" points="131.5,76.1 130,76.1 128.5,78 127.3,78 125.6,82.4 124.5,82.4 123.7,83.8 123.7,87 128,87.3 
		131.5,81.4 	"/>
</g>
<rect x="70" y="66.1" transform="matrix(-1 -2.282768e-003 2.282768e-003 -1 159.5342 152.0266)" fill="#FFFFFF" stroke="#A64441" stroke-width="0.9659" stroke-miterlimit="10" width="19.6" height="19.6"/>
<rect x="217.1" y="65.8" transform="matrix(-1 -2.282768e-003 2.282768e-003 -1 453.7269 151.7691)" fill="#7E6892" width="19.6" height="19.6"/>
</svg>
