<?xml version="1.0" encoding="utf-8"?>
<!-- Generator: Adobe Illustrator 17.0.0, SVG Export Plug-In . SVG Version: 6.00 Build 0)  -->
<!DOCTYPE svg PUBLIC "-//W3C//DTD SVG 1.1//EN" "http://www.w3.org/Graphics/SVG/1.1/DTD/svg11.dtd">
<svg version="1.1" id="Layer_1" xmlns="http://www.w3.org/2000/svg" xmlns:xlink="http://www.w3.org/1999/xlink" x="0px" y="0px"
	 width="72px" height="44px" viewBox="0 0 72 44" enable-background="new 0 0 72 44" xml:space="preserve">
<g>
	<path fill="#A64441" d="M26.8,17.3c0,0-2.5,2,1.4,4.4l15.6,0c3.9-2.4,1.4-4.4,1.4-4.4s-6.4-5.2-7.8-6.6c-1.5-1.4-2.6,0-2.6,0
		L26.8,17.3z"/>
	
		<rect x="30.2" y="22.8" transform="matrix(-1 -2.282768e-003 2.282768e-003 -1 72.3848 48.0163)" fill="#A64441" width="12" height="2.3"/>
	
		<rect x="35" y="25.6" transform="matrix(-1 -2.282768e-003 2.282768e-003 -1 72.2889 60.461)" fill="#A64441" width="2.3" height="9.2"/>
	
		<rect x="24.7" y="11.6" transform="matrix(0.7705 -0.6375 0.6375 0.7705 -1.4166 21.6356)" fill="#A64441" width="9.2" height="2.3"/>
	<rect x="41.5" y="8.4" transform="matrix(0.641 -0.7676 0.7676 0.641 5.3591 37.4132)" fill="#A64441" width="2.3" height="9.2"/>
	<polygon fill="#A64441" points="26,23.8 27.5,23.8 29,25.8 30.2,25.8 31.9,30.2 32.9,30.2 33.7,31.5 33.7,34.8 29.4,35 26,29.1 	
		"/>
	<polygon fill="#A64441" points="46,23.9 44.6,23.9 43,25.8 41.9,25.8 40.2,30.2 39.1,30.2 38.3,31.5 38.3,34.8 42.6,35 46,29.2 	
		"/>
</g>
</svg>
