<?xml version="1.0" encoding="utf-8"?>
<!-- Generator: Adobe Illustrator 17.0.0, SVG Export Plug-In . SVG Version: 6.00 Build 0)  -->
<!DOCTYPE svg PUBLIC "-//W3C//DTD SVG 1.1//EN" "http://www.w3.org/Graphics/SVG/1.1/DTD/svg11.dtd">
<svg version="1.1" xmlns="http://www.w3.org/2000/svg" xmlns:xlink="http://www.w3.org/1999/xlink" x="0px" y="0px"
	 width="3541.8px" height="4085.3px" viewBox="-1770.9 -6.8 3541.8 4085.3" enable-background="new -1770.9 -6.8 3541.8 4085.3"
	 xml:space="preserve">
<g id="ENTRANCE_x5F_PIPE-0001">
</g>
<g id="PIPE-ENGINE-0002">
</g>
<g id="PLATFROM-ENGINE-0003">
</g>
<g id="VENTILATOR-0004">
</g>
<g id="ENGINE-0005">
</g>
<g id="STONE_x5F_PILLAR-0006">
</g>
<g id="CHAIN_x5F_ROOM-0007">
</g>
<g id="ARMORY-0008">
</g>
<g id="PIPE_x5F_MAZE-0009">
</g>
<g id="TRANSFER-0010">
</g>
<g id="AQUEDUCT-0011">
</g>
<g id="ENTRANCE_x5F_CHREST-0012">
</g>
<g id="ENTRANCE_x5F_WATERFALL-0013">
</g>
<g id="TO_x5F_ROYAL_x5F_POOLS-0014">
</g>
<g id="DRAIN-0015">
</g>
<g id="IRRIGATION-0016">
</g>
<g id="HANGING_x5F_GARDENS-0017">
</g>
<g id="PLEASURE_x5F_GARDENS-0018">
</g>
<g id="GAUNTLET-0019">
</g>
<g id="CONDUIT-0020">
</g>
<g id="SPARK_x5F_ROOM-0021">
</g>
<g id="PIPELINE_x5F_LOWER-0023">
</g>
<g id="PIPELINE_x5F_UPPER-0024">
</g>
<g id="THRONE-0025">
	<g>
		<polygon fill="#7D6791" points="-1545.8,4039.6 -1476.7,4003.2 -1453.4,4013.1 -1335.3,3950.2 -1355.7,3941.6 -902.7,3709.6 
			-825.9,3737.5 -1278,3971.4 -1301.3,3963.2 -1420.3,4025.2 -1398.6,4032.7 -1466.5,4068.8 		"/>
		
			<linearGradient id="SVGID_1_" gradientUnits="userSpaceOnUse" x1="0.5" y1="1224.5" x2="1.5" y2="1224.5" gradientTransform="matrix(722.3726 0 0 -722.3726 -1908.2614 888434.375)">
			<stop  offset="0" style="stop-color:#FFFFFF"/>
			<stop  offset="1" style="stop-color:#191818"/>
		</linearGradient>
		<polygon fill="url(#SVGID_1_)" points="-1545.8,4039.6 -1545.8,4039.6 -1476.7,4003.2 -1453.4,4013.1 -1335.3,3950.2 
			-1355.7,3941.6 -902.7,3709.6 -825.9,3737.5 -1278,3971.4 -1301.3,3963.2 -1420.3,4025.2 -1398.6,4032.7 -1466.5,4068.8 
			-1545.8,4039.6 -1545.8,4039.6 -1545.8,4039.6 -1466.5,4068.8 -1398.6,4032.7 -1420.3,4025.2 -1301.3,3963.2 -1278,3971.4 
			-825.9,3737.5 -902.7,3709.6 -1355.7,3941.6 -1335.3,3950.2 -1453.4,4013.1 -1476.7,4003.2 -1545.8,4039.6 		"/>
		<polygon fill="#804099" points="-1445.4,4078.5 -1467,4068.9 -1399.2,4032.9 -1420.8,4025.3 -1301.8,3963.4 -1278.5,3971.6 
			-1109.5,3884.1 -1032.2,3912.8 -994.7,3895.9 -1074.4,3866 -723.7,3684.7 -826.3,3645.6 -843.7,3654.4 -890.9,3634 -954.5,3666.2 
			-875.3,3695.1 -1356.1,3941.7 -1335.8,3950.3 -1454,4013.3 -1477.3,4003.4 -1546.4,4039.7 -1567.3,4031.2 -1473.5,3981.6 
			-1450.4,3990.8 -1383.9,3955.5 -1406.4,3947.3 -927.8,3701.1 -999.7,3671.7 -887.3,3613.1 -839.8,3633.2 -820.2,3623.4 
			-671,3680.7 -1022.8,3861.7 -945.6,3890.7 -1036.2,3937 -1114.3,3908 -1282.5,3994.3 -1306.5,3984.9 -1371.5,4019.2 
			-1349.5,4027.5 		"/>
		<polygon fill="#FFFFFF" points="-1424,4005.4 -1415.1,4009 -1354.5,3977.9 -1363.8,3974.1 		"/>
		<polygon fill="none" stroke="#000000" stroke-width="2" stroke-miterlimit="10" points="-1424,4005.4 -1415.1,4009 
			-1354.5,3977.9 -1363.8,3974.1 		"/>
		<polygon fill="#FFFFFF" points="-1296.1,3911.3 -1287.2,3914.8 -1226.6,3883.6 -1235.9,3879.9 		"/>
		<polygon fill="none" stroke="#000000" stroke-width="2" stroke-miterlimit="10" points="-1296.1,3911.3 -1287.2,3914.8 
			-1226.6,3883.6 -1235.9,3879.9 		"/>
		<polygon fill="#FFFFFF" points="-1281,3916.9 -1272.1,3920.5 -1211.6,3889.2 -1221,3885.5 		"/>
		<polygon fill="none" stroke="#000000" stroke-width="2" stroke-miterlimit="10" points="-1281,3916.9 -1272.1,3920.5 
			-1211.6,3889.2 -1221,3885.5 		"/>
		<polygon fill="#FFFFFF" points="-1171.9,3873 -1163,3876.6 -1102.5,3845.3 -1111.7,3841.6 		"/>
		<polygon fill="none" stroke="#000000" stroke-width="2" stroke-miterlimit="10" points="-1171.9,3873 -1163,3876.6 
			-1102.5,3845.3 -1111.7,3841.6 		"/>
		<polygon fill="#FFFFFF" points="-1032.5,3786.1 -1023.6,3789.7 -963.1,3758.6 -972.3,3754.7 		"/>
		<polygon fill="none" stroke="#000000" stroke-width="2" stroke-miterlimit="10" points="-1032.5,3786.1 -1023.6,3789.7 
			-963.1,3758.6 -972.3,3754.7 		"/>
		<polygon fill="#FFFFFF" points="-1072.7,3838.1 -1063.7,3841.6 -1003.3,3810.4 -1012.6,3806.7 		"/>
		<polygon fill="none" stroke="#000000" stroke-width="2" stroke-miterlimit="10" points="-1072.7,3838.1 -1063.7,3841.6 
			-1003.3,3810.4 -1012.6,3806.7 		"/>
		<polygon fill="#FFFFFF" points="-932.4,3766.9 -923.5,3770.5 -863.1,3739.4 -872.3,3735.5 		"/>
		<polygon fill="none" stroke="#000000" stroke-width="2" stroke-miterlimit="10" points="-932.4,3766.9 -923.5,3770.5 
			-863.1,3739.4 -872.3,3735.5 		"/>
		<polygon fill="#FFFFFF" points="-1256.3,3927.5 -1268.8,3933.9 -1307.5,3916.8 -1295.9,3911.1 		"/>
		<polygon fill="none" stroke="#000000" stroke-width="2" stroke-miterlimit="10" points="-1256.3,3927.5 -1268.8,3933.9 
			-1307.5,3916.8 -1295.9,3911.1 		"/>
		<polygon fill="#FFFFFF" points="-1137.1,3863.5 -1128,3859.1 -1092,3874.1 -1101.5,3878.8 		"/>
		<path d="M-1128,3860.1l33.5,14l-7.1,3.5l-33.2-14.2L-1128,3860.1 M-1128,3858l-11.5,5.6l38.1,16.3l11.8-5.9L-1128,3858z"/>
		<polygon fill="#FFFFFF" points="-954.5,3666.2 -890.9,3634 -843.7,3654.4 -826.3,3645.6 -723.7,3684.7 -825.9,3737.6 
			-903.5,3709.6 -876.9,3694.6 		"/>
		<polygon fill="none" stroke="#000000" stroke-width="2" stroke-miterlimit="10" points="-954.5,3666.2 -890.9,3634 -843.7,3654.4 
			-826.3,3645.6 -723.7,3684.7 -825.9,3737.6 -903.5,3709.6 -876.9,3694.6 		"/>
		<polygon fill="#FFFFFF" points="-1109.5,3884.1 -1074.4,3866 -994.7,3895.9 -1032.2,3912.8 		"/>
		<polygon fill="none" stroke="#000000" stroke-width="2" stroke-miterlimit="10" points="-1109.5,3884.1 -1074.4,3866 
			-994.7,3895.9 -1032.2,3912.8 		"/>
		<polygon fill="#FFFFFF" points="-1312.4,3948.3 -1303.5,3951.8 -1243,3920.6 -1252.2,3916.9 		"/>
		<polygon fill="none" stroke="#000000" stroke-width="2" stroke-miterlimit="10" points="-1312.4,3948.3 -1303.5,3951.8 
			-1243,3920.6 -1252.2,3916.9 		"/>
		<path fill="none" stroke="#535353" stroke-width="4" stroke-miterlimit="10" d="M-854,3699c0,11.4,50.4,24.7,77.4-7.9l1-401.6
			l-78.4,17.4C-854,3306.8-854,3687.6-854,3699z"/>
		<path fill="#1C75BB" d="M-840,3590.5c0,0-6.7,5.3,3.8,11.9h42.6c10.6-6.6,3.8-11.9,3.8-11.9s-17.5-14.3-21.5-18.1
			c-4-3.8-7.3,0-7.3,0L-840,3590.5z"/>
		<circle fill="#1C75BB" cx="-814.8" cy="3553.5" r="8.4"/>
		<path fill="#804099" d="M-789.7,3414c0,0,6.7-5.3-3.8-11.9h-42.5c-10.6,6.6-3.8,11.9-3.8,11.9s17.5,14.3,21.5,18.1
			c4,3.8,7.3,0,7.3,0L-789.7,3414z"/>
		<circle fill="#804099" cx="-814.8" cy="3451" r="8.4"/>
		<polygon fill="#1B75BC" points="-362.8,3411 -374,3418.6 -436.8,3393 -408,3376 -573,3313.8 -451,3243.5 -643.2,3172 -773.6,3241 
			-796.6,3230.6 -960.9,3315 -571.1,3461.7 -534.1,3442.1 -364.1,3504.2 -278.2,3442.9 		"/>
		<polygon fill="#FFFFFF" points="-568.4,3439.1 -456,3380.8 -800.8,3252.9 -913.2,3308.6 		"/>
		<polygon fill="none" stroke="#000000" stroke-width="2" stroke-miterlimit="10" points="-568.4,3439.1 -456,3380.8 -800.8,3252.9 
			-913.2,3308.6 		"/>
		<polygon fill="#FFFFFF" points="-723.4,3232.4 -777.4,3261.6 -743,3274.3 -728.6,3265.7 -608.3,3311.6 -484.2,3246.1 
			-602.1,3202.3 -585.1,3193 -621.4,3179 -679.3,3209.7 -559,3254.6 -603.6,3277.3 		"/>
		<polygon fill="none" stroke="#000000" stroke-width="2" stroke-miterlimit="10" points="-723.4,3232.4 -777.4,3261.6 -743,3274.3 
			-728.6,3265.7 -608.3,3311.6 -484.2,3246.1 -602.1,3202.3 -585.1,3193 -621.4,3179 -679.3,3209.7 -559,3254.6 -603.6,3277.3 		"/>
		<polygon fill="#FFFFFF" points="-529.9,3419.1 -373.3,3477.6 -308.4,3431.9 -347.6,3417.5 -379.3,3439.1 -488.7,3397.7 		"/>
		<polygon fill="none" stroke="#000000" stroke-width="2" stroke-miterlimit="10" points="-529.9,3419.1 -373.3,3477.6 
			-308.4,3431.9 -347.6,3417.5 -379.3,3439.1 -488.7,3397.7 		"/>
		<ellipse fill="#804099" cx="-814.8" cy="3302.6" rx="39.2" ry="19.9"/>
		<path fill="#FFFFFF" d="M-308.4,3431.9l0.6-1181.7l-43.3-18.1c0,0,1.6,1103.4,1.6,1183.9L-308.4,3431.9z"/>
		<path fill="none" stroke="#8DC73F" stroke-width="4" stroke-miterlimit="10" d="M-308.4,3431.9l0.6-1181.7l-43.3-18.1
			c0,0,1.6,1103.4,1.6,1183.9L-308.4,3431.9z"/>
		<polygon fill="#1B75BC" points="647.7,2392.9 551.7,2441.7 543.3,2437.4 9.8,2710.7 -50.1,2688.5 -175.7,2747.5 -113.1,2770.8 
			-750.9,3107.6 -616.9,3158.7 -487.1,3092.7 692.6,2491.4 681.1,2487.4 777.4,2438.2 		"/>
		<polygon fill="#FFFFFF" points="-120.4,2744.8 -59.8,2766.5 7.3,2732 -49.8,2709.8 		"/>
		<polygon fill="none" stroke="#000000" stroke-width="2" stroke-miterlimit="10" points="-120.4,2744.8 -59.8,2766.5 7.3,2732 
			-49.8,2709.8 		"/>
		<path fill="#EDDD00" d="M-42.4,2742.5c-1.6,4.4-3.6,8.1-8.1,8.1h-33.3c-4.5,0-6.2-3.7-8.1-8.1l-9.9-25.2c0-4.5,3.6-8.1,8.1-8.1
			h53.9c4.5,0,8.1,3.6,8.1,8.1L-42.4,2742.5z"/>
		<path fill="#FFFFFF" d="M-56,2726.3c-0.7,1.9-1.6,3.6-3.6,3.6h-14.7c-1.9,0-2.7-1.6-3.6-3.6l-4.4-11.1c0-1.9,1.6-3.6,3.6-3.6h23.9
			c1.9,0,3.6,1.6,3.6,3.6L-56,2726.3z"/>
		<polygon fill="#FFFFFF" points="-589.6,3118.5 -560.7,3130.1 -520.9,3110 -550.4,3097.5 		"/>
		<polygon fill="none" stroke="#000000" stroke-width="2" stroke-miterlimit="10" points="-589.6,3118.5 -560.7,3130.1 -520.9,3110 
			-550.4,3097.5 		"/>
		<polygon fill="#FFFFFF" points="-711.2,3100.2 -618.3,3133.5 -523.4,3083.5 -510.7,3087.6 641,2496 632,2491.6 725.7,2444.2 
			642,2413.8 549.6,2462 541.2,2458.5 		"/>
		<polygon fill="none" stroke="#000000" stroke-width="2" stroke-miterlimit="10" points="-711.2,3100.2 -618.3,3133.5 
			-523.4,3083.5 -510.7,3087.6 641,2496 632,2491.6 725.7,2444.2 642,2413.8 549.6,2462 541.2,2458.5 		"/>
		<polygon fill="#FFFFFF" points="-323.3,2981.5 -334.9,2987.1 -416.5,2955.7 -405,2950.3 		"/>
		<polygon fill="none" stroke="#000000" stroke-width="2" stroke-miterlimit="10" points="-323.3,2981.5 -334.9,2987.1 
			-416.5,2955.7 -405,2950.3 		"/>
		<polygon fill="#FFFFFF" points="-77.9,2857.1 -89.7,2862.5 -171.1,2831.3 -159.8,2825.7 		"/>
		<polygon fill="none" stroke="#000000" stroke-width="2" stroke-miterlimit="10" points="-77.9,2857.1 -89.7,2862.5 -171.1,2831.3 
			-159.8,2825.7 		"/>
		<polygon fill="#FFFFFF" points="210.5,2708.7 198.7,2714.4 117.3,2683 128.8,2677.5 		"/>
		<polygon fill="none" stroke="#000000" stroke-width="2" stroke-miterlimit="10" points="210.5,2708.7 198.7,2714.4 117.3,2683 
			128.8,2677.5 		"/>
		<polygon fill="#FFFFFF" points="422.9,2599.4 411.1,2604.8 329.7,2573.6 341.2,2568 		"/>
		<polygon fill="none" stroke="#000000" stroke-width="2" stroke-miterlimit="10" points="422.9,2599.4 411.1,2604.8 329.7,2573.6 
			341.2,2568 		"/>
		<path fill="#FFFFFF" d="M594.4,2461.2c0,11.4,50.4,24.7,77.4-7.9l1-2106.8l-78.4,17.4C594.4,363.9,594.4,2450,594.4,2461.2z"/>
		<path fill="none" stroke="#535353" stroke-width="4" stroke-miterlimit="10" d="M594.4,2461.2c0,11.4,50.4,24.7,77.4-7.9l1-2106.8
			l-78.4,17.4C594.4,363.9,594.4,2450,594.4,2461.2z"/>
		<path fill="#F8B13C" d="M608.4,2362.8c0,0-6.7,5.3,3.8,11.9h42.6c10.6-6.6,3.8-11.9,3.8-11.9s-17.5-14.3-21.5-18.1
			c-4-3.8-7.3,0-7.3,0L608.4,2362.8z"/>
		<circle fill="#F8B13C" cx="633.5" cy="2325.7" r="8.4"/>
		<path fill="#1B75BC" d="M658.7,450.2c0,0,6.7-5.3-3.8-11.9h-42.6c-10.6,6.6-3.8,11.9-3.8,11.9s17.5,14.3,21.5,18.1
			c4,3.8,7.3,0,7.3,0L658.7,450.2z"/>
		<circle fill="#1B75BC" cx="633.5" cy="487.4" r="8.4"/>
		<polyline fill="#1B75BC" points="-601.1,3202.2 -596.7,3199.2 -277.9,3318.2 -258.6,3307.2 -207.9,3327.5 -168.3,3305.8 
			-217.9,3286.1 -102.7,3224 -199.9,3188.9 -40.9,3106.9 -75.6,3092.3 -233.9,3175.2 -409.1,3111.1 -230.5,3018.8 -167.2,3041.8 
			-178.4,3048.8 -209.1,3038.1 -300.1,3087.2 -204.7,3124.5 -107.1,3073.8 -138.6,3062.7 -129.3,3055.4 -3.2,3101.7 96.6,3050.5 
			-181.8,2944.6 -284.2,2998.7 -265.3,3005.5 -455.1,3104.5 -487.1,3092.7 -650.3,3179 		"/>
		<polygon fill="#1B75BC" points="-677.1,3180.2 -173.3,2928.5 144.8,3048.2 -3.9,3127.4 -22.4,3121.5 -161,3191.3 -70.7,3224.6 
			-176.2,3281.5 -118.8,3303.2 -209.9,3351.8 -271.6,3328.1 -280.2,3332.6 		"/>
		<polygon fill="#FFFFFF" points="-655.6,3172.8 -487.4,3087.2 -107.8,3226.8 -277.3,3313.3 		"/>
		<path fill="#F2202B" d="M-487.1,3092.7l366.8,134.9l-157.4,80.3L-643.2,3172L-487.1,3092.7 M-487.7,3081.8l-3.9,2l-156.1,79.4
			l-20.3,10.3l21.4,7.9l365.6,135.8l4.1,1.5l3.9-2l157.4-80.3l20.4-10.4l-21.5-7.9l-366.8-134.9L-487.7,3081.8z"/>
		<polygon fill="#FFFFFF" points="-245.4,3181.5 -210.3,3194.4 -39.4,3106.6 -75.9,3092.7 		"/>
		<polygon fill="none" stroke="#000000" stroke-width="2" stroke-miterlimit="10" points="-245.4,3181.5 -210.3,3194.4 
			-39.4,3106.6 -75.9,3092.7 		"/>
		<polygon fill="#FFFFFF" points="-3.5,3102.1 97.9,3050.1 -181.8,2944.6 -284.5,2999.1 -129.6,3055.8 		"/>
		<polygon fill="none" stroke="#000000" stroke-width="2" stroke-miterlimit="10" points="-3.5,3102.1 97.9,3050.1 -181.8,2944.6 
			-284.5,2999.1 -129.6,3055.8 		"/>
		<polygon fill="#FFFFFF" points="-151.2,3070.6 -186.6,3058.1 -165.5,3042.6 -129.6,3055.8 		"/>
		<polygon fill="none" stroke="#000000" stroke-width="2" stroke-miterlimit="10" points="-151.2,3070.6 -186.6,3058.1 
			-165.5,3042.6 -129.6,3055.8 		"/>
		<polygon fill="#FFFFFF" points="-214.5,3133.5 -117.9,3082.4 -219.6,3046.4 -311.4,3095.8 		"/>
		<polygon fill="none" stroke="#000000" stroke-width="2" stroke-miterlimit="10" points="-214.5,3133.5 -117.9,3082.4 
			-219.6,3046.4 -311.4,3095.8 		"/>
		<polygon fill="#FFFFFF" points="-265.4,3006.1 -230.5,3018.8 -422.2,3116.5 -455.1,3104.5 		"/>
		<polygon fill="none" stroke="#000000" stroke-width="2" stroke-miterlimit="10" points="-265.4,3006.1 -230.5,3018.8 
			-422.2,3116.5 -455.1,3104.5 		"/>
		<path fill="#F01B21" d="M-481.2,3142.7c0,0-4.4,3.6,2.5,7.8h27.8c6.9-4.2,2.5-7.8,2.5-7.8s-11.5-9.3-14.1-11.8
			c-2.6-2.5-4.8,0-4.8,0L-481.2,3142.7z"/>
		<rect x="-475.2" y="3152.4" fill="#F01B21" width="21.4" height="4.2"/>
		<rect x="-466.5" y="3157.5" fill="#F01B21" width="4.2" height="16.4"/>
		
			<rect x="-485.5" y="3132" transform="matrix(-0.769 0.6392 -0.6392 -0.769 1159.1512 5849.4951)" fill="#F01B21" width="16.4" height="4.2"/>
		
			<rect x="-455.2" y="3126.7" transform="matrix(-0.6392 0.769 -0.769 -0.6392 1668.1323 5487.3555)" fill="#F01B21" width="4.2" height="16.4"/>
		<polygon fill="#F01B21" points="-482.6,3154.4 -480,3154.4 -477.2,3157.8 -475.2,3157.8 -472.1,3165.7 -470.2,3165.7 
			-468.9,3168.1 -468.9,3174 -476.5,3174.4 -482.6,3163.8 		"/>
		<polygon fill="#F01B21" points="-446.8,3154.4 -449.4,3154.4 -452.1,3157.8 -454.3,3157.8 -457.3,3165.7 -459.3,3165.7 
			-460.6,3168.1 -460.6,3174 -453,3174.4 -446.8,3163.8 		"/>
		<path fill="#F01B21" d="M-413.3,3182.9c0,0-4.4,3.6,2.5,7.8h27.8c6.9-4.2,2.5-7.8,2.5-7.8s-11.5-9.3-14.1-11.8
			c-2.6-2.5-4.8,0-4.8,0L-413.3,3182.9z"/>
		<rect x="-407.3" y="3192.7" fill="#F01B21" width="21.4" height="4.2"/>
		<rect x="-398.7" y="3197.7" fill="#F01B21" width="4.2" height="16.4"/>
		
			<rect x="-417.6" y="3172.4" transform="matrix(-0.769 0.6392 -0.6392 -0.769 1305.0083 5877.4502)" fill="#F01B21" width="16.4" height="4.2"/>
		
			<rect x="-387.5" y="3167" transform="matrix(-0.6392 0.769 -0.769 -0.6392 1810.1523 5501.2017)" fill="#F01B21" width="4.2" height="16.4"/>
		<polygon fill="#F01B21" points="-414.7,3194.5 -412.1,3194.5 -409.4,3198 -407.3,3198 -404.3,3205.9 -402.4,3205.9 -401,3208.4 
			-401,3214.1 -408.7,3214.5 -414.7,3204 		"/>
		<polygon fill="#F01B21" points="-378.9,3194.5 -381.5,3194.5 -384.3,3198 -386.5,3198 -389.5,3205.9 -391.4,3205.9 -392.8,3208.4 
			-392.8,3214.1 -385.1,3214.5 -378.9,3204 		"/>
		<path fill="#F01B21" d="M-317,3185.2c0,0-4.4,3.6,2.5,7.8h27.8c6.9-4.2,2.5-7.8,2.5-7.8s-11.5-9.3-14.1-11.8c-2.6-2.5-4.8,0-4.8,0
			L-317,3185.2z"/>
		<rect x="-310.8" y="3194.9" fill="#F01B21" width="21.4" height="4.2"/>
		<rect x="-302.2" y="3200" fill="#F01B21" width="4.2" height="16.4"/>
		
			<rect x="-321.3" y="3174.5" transform="matrix(-0.769 0.6392 -0.6392 -0.769 1476.7375 5819.6641)" fill="#F01B21" width="16.4" height="4.2"/>
		
			<rect x="-290.9" y="3169.3" transform="matrix(-0.6392 0.769 -0.769 -0.6392 1970.155 5430.8076)" fill="#F01B21" width="4.2" height="16.4"/>
		<polygon fill="#F01B21" points="-318.4,3196.8 -315.8,3196.8 -313,3200.2 -310.8,3200.2 -307.8,3208.2 -305.9,3208.2 
			-304.5,3210.5 -304.5,3216.4 -312.2,3216.8 -318.4,3206.3 		"/>
		<polygon fill="#F01B21" points="-282.6,3196.8 -285.2,3196.8 -287.9,3200.2 -290.1,3200.2 -293,3208.2 -294.9,3208.2 
			-296.3,3210.5 -296.3,3216.4 -288.6,3216.8 -282.6,3206.3 		"/>
		<path fill="#F01B21" d="M-293.5,3246.2c0,0-4.4,3.6,2.5,7.8h27.8c6.9-4.2,2.5-7.8,2.5-7.8s-11.5-9.3-14.1-11.8
			c-2.6-2.5-4.8,0-4.8,0L-293.5,3246.2z"/>
		<rect x="-287.4" y="3255.9" fill="#F01B21" width="21.4" height="4.2"/>
		<rect x="-278.7" y="3261" fill="#F01B21" width="4.2" height="16.4"/>
		
			<rect x="-297.7" y="3235.5" transform="matrix(-0.769 0.6392 -0.6392 -0.769 1557.5396 5912.4937)" fill="#F01B21" width="16.4" height="4.2"/>
		
			<rect x="-267.4" y="3230.2" transform="matrix(-0.6392 0.769 -0.769 -0.6392 2055.5569 5512.5552)" fill="#F01B21" width="4.2" height="16.4"/>
		<polygon fill="#F01B21" points="-294.9,3257.9 -292.1,3257.9 -289.4,3261.3 -287.4,3261.3 -284.3,3269.2 -282.4,3269.2 
			-281,3271.6 -281,3277.5 -288.7,3277.9 -294.9,3267.3 		"/>
		<polygon fill="#F01B21" points="-259,3257.9 -261.6,3257.9 -264.3,3261.3 -266.5,3261.3 -269.5,3269.2 -271.5,3269.2 
			-272.8,3271.6 -272.8,3277.5 -265.1,3277.9 -259,3267.3 		"/>
		<polygon fill="#FFFFFF" points="-207.9,3327.5 -168.3,3305.8 -227.3,3282.3 -268.9,3303.5 		"/>
		<polygon fill="none" stroke="#000000" stroke-width="2" stroke-miterlimit="10" points="-207.9,3327.5 -168.3,3305.8 
			-227.3,3282.3 -268.9,3303.5 		"/>
		<path fill="#EDDD00" d="M-186.9,3306.5c-1.6,4.4-3.6,8.1-8.1,8.1h-33.3c-4.5,0-6.2-3.7-8.1-8.1l-9.9-25.2c0-4.5,3.6-8.1,8.1-8.1
			h53.9c4.5,0,8.1,3.6,8.1,8.1L-186.9,3306.5z"/>
		<path fill="#FFFFFF" d="M-200.6,3290.3c-0.7,1.9-1.6,3.6-3.6,3.6h-14.7c-1.9,0-2.7-1.6-3.6-3.6l-4.4-11.1c0-1.9,1.6-3.6,3.6-3.6
			h23.9c1.9,0,3.6,1.6,3.6,3.6L-200.6,3290.3z"/>
		<polygon fill="#02ADF1" points="9.9,1655.6 57.2,1674.5 -104.4,1761.3 -140.7,1747.2 -230.2,1793.1 -427.6,1719 -339.2,1673.2 
			-372.2,1661 -208.3,1575 -73.8,1625.9 		"/>
		<path fill="#FFFFFF" d="M-255.7,3101.3c0,11.4,50.4,24.7,77.4-7.9l1-1460.6l-78.4,17.4C-255.7,1650.1-255.7,3089.9-255.7,3101.3z"
			/>
		<path fill="none" stroke="#535353" stroke-width="4" stroke-miterlimit="10" d="M-255.7,3101.3c0,11.4,50.4,24.7,77.4-7.9
			l1-1460.6l-78.4,17.4C-255.7,1650.1-255.7,3089.9-255.7,3101.3z"/>
		<polygon fill="#FFFFFF" points="-320.7,1654.7 -210.1,1598.9 -104.4,1634.5 -216.5,1694 		"/>
		<polygon fill="none" stroke="#000000" stroke-width="2" stroke-miterlimit="10" points="-320.7,1654.7 -210.1,1598.9 
			-104.4,1634.5 -216.5,1694 		"/>
		<polygon fill="#FFFFFF" points="-205.4,1696.3 -94.9,1640.5 10.9,1676.2 -101.4,1735.7 		"/>
		<polygon fill="none" stroke="#000000" stroke-width="2" stroke-miterlimit="10" points="-205.4,1696.3 -94.9,1640.5 10.9,1676.2 
			-101.4,1735.7 		"/>
		<polygon fill="#FFFFFF" points="-291.2,1665.8 -255.7,1679.2 -299.6,1702 -222.1,1731.4 -177.3,1706.9 -136,1722.5 -226.8,1769.8 
			-381.7,1713.6 		"/>
		<polygon fill="none" stroke="#000000" stroke-width="2" stroke-miterlimit="10" points="-291.2,1665.8 -255.7,1679.2 -299.6,1702 
			-222.1,1731.4 -177.3,1706.9 -136,1722.5 -226.8,1769.8 -381.7,1713.6 		"/>
		<polygon fill="#FFFFFF" points="-37.8,1659.9 -77.5,1646.4 51.7,1579.3 90.7,1593.7 		"/>
		<polygon fill="none" stroke="#000000" stroke-width="2" stroke-miterlimit="10" points="-37.8,1659.9 -77.5,1646.4 51.7,1579.3 
			90.7,1593.7 		"/>
		<path fill="#1B75BC" d="M-188.7,1898.9c0,0,6.7-5.3-3.8-11.9h-42.6c-10.6,6.6-3.8,11.9-3.8,11.9s17.5,14.3,21.5,18.1
			c4,3.8,7.3,0,7.3,0L-188.7,1898.9z"/>
		<circle fill="#1B75BC" cx="-213.8" cy="1935.9" r="8.4"/>
		<ellipse fill="#1B75BC" cx="-216.5" cy="1638.9" rx="39.2" ry="19.9"/>
		<path fill="#03AFF0" d="M-239,2995.6c0,0-6.7,5.3,3.8,11.9h42.6c10.6-6.6,3.8-11.9,3.8-11.9s-17.5-14.3-21.5-18.1
			c-4-3.8-7.3,0-7.3,0L-239,2995.6z"/>
		<circle fill="#03AFF0" cx="-213.8" cy="2958.6" r="8.4"/>
		<path fill="#FFFFFF" d="M-664.5,3100.6c0,11.4,50.4,24.7,77.4-7.9l1-401.6l-78.4,17.4C-664.5,2708.5-664.5,3089.4-664.5,3100.6z"
			/>
		<path fill="none" stroke="#535353" stroke-width="4" stroke-miterlimit="10" d="M-664.5,3100.6c0,11.4,50.4,24.7,77.4-7.9l1-401.6
			l-78.4,17.4C-664.5,2708.5-664.5,3089.4-664.5,3100.6z"/>
		<polygon fill="#079239" points="-899,2879.3 -864.3,2892.6 -489.7,2701.3 -767,2595.1 -1143.1,2788.4 -1110.5,2799.9 
			-1159.1,2827 -950.1,2906 		"/>
		<polygon fill="#FFFFFF" points="-1059.1,2795.2 -1109.5,2819.9 -946.5,2883 -896.4,2856.9 -929.1,2844.5 -940.1,2850.5 
			-1035.9,2813.6 -1025.1,2808.1 		"/>
		<polygon fill="none" stroke="#000000" stroke-width="2" stroke-miterlimit="10" points="-1059.1,2795.2 -1109.5,2819.9 
			-946.5,2883 -896.4,2856.9 -929.1,2844.5 -940.1,2850.5 -1035.9,2813.6 -1025.1,2808.1 		"/>
		<path fill="#FFFFFF" d="M-639.9,2666.7l-152.8,77.4l-26-11.2l148.4-76.2l-100.1-37.6l-323.1,163.1l233.6,88.4l322.1-165.9
			L-639.9,2666.7z M-887.6,2790.4l-21.9-9.3l51-27.4l23,10.7L-887.6,2790.4z"/>
		<path fill="none" stroke="#000000" stroke-width="2" stroke-miterlimit="10" d="M-639.9,2666.7l-152.8,77.4l-26-11.2l148.4-76.2
			l-100.1-37.6l-323.1,163.1l233.6,88.4l322.1-165.9L-639.9,2666.7z M-887.6,2790.4l-21.9-9.3l51-27.4l23,10.7L-887.6,2790.4z"/>
		<path fill="#079239" d="M-650.5,2990c0,0-6.7,5.3,3.8,11.9h42.6c10.6-6.6,3.8-11.9,3.8-11.9s-17.5-14.3-21.5-18.1
			c-4-3.8-7.3,0-7.3,0L-650.5,2990z"/>
		<circle fill="#079239" cx="-625.3" cy="2953" r="8.4"/>
		<path fill="#1B75BC" d="M-600.2,2821c0,0,6.7-5.3-3.8-11.9h-42.6c-10.6,6.6-3.8,11.9-3.8,11.9s17.5,14.3,21.5,18.1
			c4,3.8,7.3,0,7.3,0L-600.2,2821z"/>
		<circle fill="#1B75BC" cx="-625.3" cy="2858.2" r="8.4"/>
		<ellipse fill="#1B75BC" cx="-630.3" cy="2708.4" rx="39.2" ry="19.9"/>
		<path fill="#FFFFFF" d="M-797.4,2662c0,11.4,50.4,24.7,77.4-7.9l1-840.7l-78.4,17.4C-797.4,1830.9-797.4,2650.8-797.4,2662z"/>
		<path fill="none" stroke="#535353" stroke-width="4" stroke-miterlimit="10" d="M-797.4,2662c0,11.4,50.4,24.7,77.4-7.9l1-840.7
			l-78.4,17.4C-797.4,1830.9-797.4,2650.8-797.4,2662z"/>
		<path fill="#8DC73F" d="M-783.4,2544.5c0,0-6.7,5.3,3.8,11.9h42.6c10.6-6.6,3.8-11.9,3.8-11.9s-17.5-14.3-21.5-18.1
			c-4-3.8-7.3,0-7.3,0L-783.4,2544.5z"/>
		<circle fill="#8DC73F" cx="-758.2" cy="2507.5" r="8.4"/>
		<path fill="#079239" d="M-733.1,1943.5c0,0,6.7-5.3-3.8-11.9h-42.6c-10.6,6.6-3.8,11.9-3.8,11.9s17.5,14.3,21.5,18.1
			c4,3.8,7.3,0,7.3,0L-733.1,1943.5z"/>
		<circle fill="#079239" cx="-758.2" cy="1980.5" r="8.4"/>
		<polygon fill="#8DC73F" points="286.8,2339.1 237.3,2318.6 308.6,2280.9 227.5,2248.3 153,2287.8 -60.1,2207.9 -157,2259.7 
			-215.3,2236.9 -417.2,2341.9 -386.3,2356.1 -469.3,2401.2 -457.2,2406.4 -505.6,2434.6 -616.6,2390.6 -681.7,2434.5 
			-511.6,2498.1 -521.2,2503.1 -441.2,2536 -430.7,2529.6 -411,2537.8 -337,2499 -289.4,2518.1 -237.2,2489.4 -218.1,2496.3 
			-123.7,2447.8 -3,2494.6 		"/>
		<polygon fill="#FFFFFF" points="-131.5,2424.5 49,2328.2 -56.4,2286.6 -131.8,2259.5 -65.1,2223.9 210,2330.5 -36.5,2461.1 		"/>
		<path fill="#F2202B" d="M-64.8,2229.4L198,2331.3l-234.8,124.3l-82.7-31.8l180.4-96.2l-115.6-45.6l-64.8-23.3L-64.8,2229.4
			 M-65.4,2218.4l-4,2.2l-54.7,29.2l-19.9,10.6l21.2,7.6l64.7,23.2l95.3,37.6l-161.3,86l-19.3,10.3l20.4,7.9l82.7,31.8l4.2,1.6
			l4-2.1l234.8-124.3l19.4-10.2l-20.4-7.9l-262.8-101.8L-65.4,2218.4z"/>
		<polygon fill="#FFFFFF" points="-234.3,2302.9 -332.4,2355.4 -381,2337 -220.5,2254.9 -88.9,2302.9 -47.6,2279.4 72.8,2326.9 
			-31.4,2382.5 		"/>
		<path fill="#F2202B" d="M-220.2,2260.4l131.7,48l41.3-23.4l108.1,42.6l-92.7,49.5l-202.9-79.6l-98.1,52.5l-35.9-13.6
			L-220.2,2260.4 M-220.9,2249.5l-3.9,2l-148.4,75.9l-20.1,10.3l21.1,8l35.9,13.6l4.2,1.6l4-2.1l94.1-50.3l198.6,78l4.3,1.7l4.1-2.2
			l92.7-49.5l19.1-10.2l-20.1-7.9l-108.1-42.6l-4.4-1.8l-4.2,2.4l-37.2,21.2l-127.4-46.4L-220.9,2249.5z"/>
		<polygon fill="#FFFFFF" points="-431.5,2397.1 -234.4,2293.1 -19.8,2376.3 -118.7,2429.1 -215.1,2480 		"/>
		<path fill="#F2202B" d="M-234.1,2298.6l202.3,78.4l-89.4,47.7l-94.3,49.8l-204-78.1L-234.1,2298.6 M-234.7,2287.7l-4,2.1
			l-185.3,97.7l-19.5,10.3l20.6,7.9l204,78.1l4.2,1.6l4-2.1l94.3-49.8l89.4-47.7l19.2-10.3l-20.3-7.9l-202.3-78.4L-234.7,2287.7z"/>
		<polygon fill="#FFFFFF" points="-271.2,2369.9 -233.1,2383.2 -273.3,2403.8 -310.5,2389.8 		"/>
		<polygon fill="none" stroke="#000000" stroke-width="2" stroke-miterlimit="10" points="-271.2,2369.9 -233.1,2383.2 
			-273.3,2403.8 -310.5,2389.8 		"/>
		<polygon fill="#FFFFFF" points="-177.8,2319.7 -142.1,2333.6 -182.9,2356.1 -220.2,2342.2 		"/>
		<polygon fill="none" stroke="#000000" stroke-width="2" stroke-miterlimit="10" points="-177.8,2319.7 -142.1,2333.6 
			-182.9,2356.1 -220.2,2342.2 		"/>
		<polygon fill="#FFFFFF" points="-471.6,2498.5 -392.5,2455 -459,2429 -407.4,2401.7 -370.4,2415.9 -380.9,2422.1 -280.8,2458.7 
			-270.4,2453.5 -234.6,2467.2 -286.5,2495.1 -354.3,2468.7 -436.5,2511.5 		"/>
		<polygon fill="none" stroke="#000000" stroke-width="2" stroke-miterlimit="10" points="-471.6,2498.5 -392.5,2455 -459,2429 
			-407.4,2401.7 -370.4,2415.9 -380.9,2422.1 -280.8,2458.7 -270.4,2453.5 -234.6,2467.2 -286.5,2495.1 -354.3,2468.7 
			-436.5,2511.5 		"/>
		<polygon fill="#FFFFFF" points="183.3,2325.6 262.8,2285.2 224.3,2270.8 148.7,2312.2 		"/>
		<polygon fill="none" stroke="#000000" stroke-width="2" stroke-miterlimit="10" points="183.3,2325.6 262.8,2285.2 224.3,2270.8 
			148.7,2312.2 		"/>
		<polygon fill="#FFFFFF" points="-16.5,2445 -5.7,2450.5 -23.1,2460.8 23.5,2479.3 260.5,2352.4 214,2334.3 37.2,2428.8 
			23.6,2423.8 		"/>
		<polygon fill="none" stroke="#000000" stroke-width="2" stroke-miterlimit="10" points="-16.5,2445 -5.7,2450.5 -23.1,2460.8 
			23.5,2479.3 260.5,2352.4 214,2334.3 37.2,2428.8 23.6,2423.8 		"/>
		<polygon fill="none" stroke="#000000" stroke-width="2" stroke-miterlimit="10" points="-119.5,2423.8 -36.8,2455.6 198,2331.3 
			-64.8,2229.4 -119.5,2258.6 -54.6,2281.9 60.9,2327.5 		"/>
		<polygon fill="none" stroke="#000000" stroke-width="2" stroke-miterlimit="10" points="-332.7,2349.9 -368.7,2336.3 
			-220.2,2260.4 -88.5,2308.4 -47.2,2284.9 60.9,2327.5 -31.7,2377 -234.6,2297.4 		"/>
		<polygon fill="none" stroke="#000000" stroke-width="2" stroke-miterlimit="10" points="-419.4,2396.4 -215.4,2474.5 
			-121.1,2424.7 -31.7,2377 -234.1,2298.6 		"/>
		<path fill="#EDDD00" d="M236.4,2291.6c-1.6,4.4-3.6,8.1-8.1,8.1H195c-4.5,0-6.2-3.7-8.1-8.1l-9.9-25.2c0-4.5,3.6-8.1,8.1-8.1H239
			c4.5,0,8.1,3.6,8.1,8.1L236.4,2291.6z"/>
		<path fill="#FFFFFF" d="M222.8,2275.5c-0.7,1.9-1.6,3.6-3.6,3.6h-14.7c-1.9,0-2.7-1.6-3.6-3.6l-4.4-11.1c0-1.9,1.6-3.6,3.6-3.6
			H224c1.9,0,3.6,1.6,3.6,3.6L222.8,2275.5z"/>
		<path fill="#F01B21" d="M-242.1,2426.1c0,0-4.4,3.6,2.5,7.8h27.8c6.9-4.2,2.5-7.8,2.5-7.8s-11.5-9.3-14.1-11.8
			c-2.6-2.5-4.8,0-4.8,0L-242.1,2426.1z"/>
		<rect x="-236.1" y="2436" fill="#F01B21" width="21.4" height="4.2"/>
		<rect x="-227.5" y="2440.9" fill="#F01B21" width="4.2" height="16.4"/>
		
			<rect x="-246.4" y="2415.6" transform="matrix(-0.769 0.6392 -0.6392 -0.769 1124.1289 4429.2925)" fill="#F01B21" width="16.4" height="4.2"/>
		
			<rect x="-216.2" y="2410.2" transform="matrix(-0.6392 0.769 -0.769 -0.6392 1508.95 4128.8462)" fill="#F01B21" width="4.2" height="16.4"/>
		<polygon fill="#F01B21" points="-243.5,2437.8 -240.9,2437.8 -238.2,2441.2 -236.1,2441.2 -233.1,2449.1 -231.2,2449.1 
			-229.8,2451.6 -229.8,2457.4 -237.5,2457.8 -243.5,2447.2 		"/>
		<polygon fill="#F01B21" points="-207.7,2437.8 -210.3,2437.8 -213.1,2441.2 -215.3,2441.2 -218.3,2449.1 -220.2,2449.1 
			-221.6,2451.6 -221.6,2457.4 -213.9,2457.8 -207.7,2447.2 		"/>
		<path fill="#F01B21" d="M-15.4,2253.5c0,0-4.4,3.6,2.5,7.8h27.8c6.9-4.2,2.5-7.8,2.5-7.8s-11.5-9.3-14.1-11.8s-4.8,0-4.8,0
			L-15.4,2253.5z"/>
		<rect x="-9.3" y="2263.4" fill="#F01B21" width="21.4" height="4.2"/>
		<rect x="-0.6" y="2268.4" fill="#F01B21" width="4.2" height="16.4"/>
		
			<rect x="-19.7" y="2243.2" transform="matrix(-0.769 0.6392 -0.6392 -0.769 1415.0186 3979.3506)" fill="#F01B21" width="16.4" height="4.2"/>
		
			<rect x="10.7" y="2237.6" transform="matrix(-0.6392 0.769 -0.769 -0.6392 1748.052 3671.5854)" fill="#F01B21" width="4.2" height="16.4"/>
		<polygon fill="#F01B21" points="-16.8,2265.2 -14.2,2265.2 -11.3,2268.6 -9.3,2268.6 -6.3,2276.6 -4.3,2276.6 -3,2279 -3,2284.8 
			-10.6,2285.2 -16.8,2274.7 		"/>
		<polygon fill="#F01B21" points="19.1,2265.2 16.5,2265.2 13.6,2268.6 11.6,2268.6 8.5,2276.6 6.6,2276.6 5.3,2279 5.3,2284.8 
			12.9,2285.2 19.1,2274.7 		"/>
		<path fill="#F01B21" d="M-249.7,2344.5c0,0-4.4,3.6,2.5,7.8h27.8c6.9-4.2,2.5-7.8,2.5-7.8s-11.5-9.3-14.1-11.8
			c-2.6-2.5-4.8,0-4.8,0L-249.7,2344.5z"/>
		<rect x="-243.5" y="2354.3" fill="#F01B21" width="21.4" height="4.2"/>
		<rect x="-235" y="2359.2" fill="#F01B21" width="4.2" height="16.4"/>
		
			<rect x="-254" y="2333.9" transform="matrix(-0.769 0.6392 -0.6392 -0.769 1058.5165 4289.5884)" fill="#F01B21" width="16.4" height="4.2"/>
		
			<rect x="-223.7" y="2328.6" transform="matrix(-0.6392 0.769 -0.769 -0.6392 1433.8654 4001.0488)" fill="#F01B21" width="4.2" height="16.4"/>
		<polygon fill="#F01B21" points="-251,2356.1 -248.4,2356.1 -245.7,2359.6 -243.5,2359.6 -240.6,2367.6 -238.7,2367.6 
			-237.2,2369.9 -237.2,2375.8 -245,2376.2 -251,2365.7 		"/>
		<polygon fill="#F01B21" points="-215.3,2356.1 -217.9,2356.1 -220.6,2359.6 -222.8,2359.6 -225.8,2367.6 -227.6,2367.6 
			-229.1,2369.9 -229.1,2375.8 -221.4,2376.2 -215.3,2365.7 		"/>
		<path fill="#F01B21" d="M-67.2,2317.4c0,0-4.4,3.6,2.5,7.8h27.8c6.9-4.2,2.5-7.8,2.5-7.8s-11.5-9.3-14.1-11.8
			c-2.6-2.5-4.8,0-4.8,0L-67.2,2317.4z"/>
		<rect x="-61" y="2327.1" fill="#F01B21" width="21.4" height="4.2"/>
		<rect x="-52.4" y="2332.2" fill="#F01B21" width="4.2" height="16.4"/>
		
			<rect x="-71.4" y="2306.9" transform="matrix(-0.769 0.6392 -0.6392 -0.769 1364.1688 4125.0928)" fill="#F01B21" width="16.4" height="4.2"/>
		
			<rect x="-41.3" y="2301.5" transform="matrix(-0.6392 0.769 -0.769 -0.6392 1712.0424 3816.3379)" fill="#F01B21" width="4.2" height="16.4"/>
		<polygon fill="#F01B21" points="-68.6,2329.1 -66,2329.1 -63.2,2332.5 -61,2332.5 -58,2340.4 -56.1,2340.4 -54.7,2342.8 
			-54.7,2348.7 -62.4,2349.1 -68.6,2338.5 		"/>
		<polygon fill="#F01B21" points="-32.8,2329.1 -35.4,2329.1 -38.1,2332.5 -40.2,2332.5 -43.2,2340.4 -45.1,2340.4 -46.5,2342.8 
			-46.5,2348.7 -38.8,2349.1 -32.8,2338.5 		"/>
		<polygon fill="#8DC73F" points="286.8,2339.1 -3,2494.6 24.7,2505.6 59.1,2486.9 198,2540.1 382.6,2442.3 359.3,2432 
			415.5,2400.5 297,2355.6 311.4,2347.5 		"/>
		<path fill="#FFFFFF" d="M352.1,2413.8l15.8-8.9l-120.2-45.5l-16,8.6l52.5,20.3l-42.2,23l-52.1-21.1l-15.6,8.5l28,11.1l-43.2,24.5
			l-29.7-11.7l-14.4,7.7l53,21.2l-42.9,23l-54.7-20.3l-14.1,7.5l145.6,57.3l15.2-9.4l-75.5-28.7l15.5-8.8l48.9,19.4l29.2-16.2
			l29.2,10.8l70.1-38.9L309,2438l24-14.8l-13.4-4.8l-25.4,14.4l-25.2-10l-26.9,14.3l-11.8-3.9l70.5-38.1L352.1,2413.8z
			 M215.4,2415.8l13.6,5.4l-28.3,15.5l25,9l-16.4,9.2l-37.4-15.4L215.4,2415.8z M205.2,2478l-37.5-14.2l16.2-8.2l35.8,14L205.2,2478
			z M266.6,2435.6l40.2,14.5l-43.6,23.6l-38.7-14.4L266.6,2435.6z"/>
		<path fill="none" stroke="#000000" stroke-width="2" stroke-miterlimit="10" d="M352.1,2413.8l15.8-8.9l-120.2-45.5l-16,8.6
			l52.5,20.3l-42.2,23l-52.1-21.1l-15.6,8.5l28,11.1l-43.2,24.5l-29.7-11.7l-14.4,7.7l53,21.2l-42.9,23l-54.7-20.3l-14.1,7.5
			l145.6,57.3l15.2-9.4l-75.5-28.7l15.5-8.8l48.9,19.4l29.2-16.2l29.2,10.8l70.1-38.9L309,2438l24-14.8l-13.4-4.8l-25.4,14.4
			l-25.2-10l-26.9,14.3l-11.8-3.9l70.5-38.1L352.1,2413.8z M215.4,2415.8l13.6,5.4l-28.3,15.5l25,9l-16.4,9.2l-37.4-15.4
			L215.4,2415.8z M205.2,2478l-37.5-14.2l16.2-8.2l35.8,14L205.2,2478z M266.6,2435.6l40.2,14.5l-43.6,23.6l-38.7-14.4L266.6,2435.6
			z"/>
		<polygon fill="#8DC73F" points="-478.6,2098.2 -539.9,2131.1 -552.2,2125.8 -522,2109.9 -531.2,2105.8 -459.3,2068.8 
			-541.9,2037.9 -612.5,2076.8 -633.1,2069.2 -969.4,2249.8 -948.1,2259 -922.3,2245.2 -749.7,2312.1 -793.4,2335.4 -780.8,2340.8 
			-842.4,2371.3 -834,2375 -858.4,2387.4 -756,2427.7 -731.8,2415.8 -681.7,2434.5 -616.6,2390.6 -650.9,2377 -463.6,2277 
			-506.1,2260.4 -409.2,2207.9 -287.8,2258.6 -190.1,2207.9 		"/>
		<polygon fill="#FFFFFF" points="-488,2156.3 -506.7,2166.4 -544.4,2152 -481.5,2119.5 -238.2,2212.5 -309.3,2249.3 -349.6,2232.6 
			-326.6,2220.6 		"/>
		<polygon fill="none" stroke="#000000" stroke-width="2" stroke-miterlimit="10" points="-488,2156.3 -506.7,2166.4 -544.4,2152 
			-481.5,2119.5 -238.2,2212.5 -309.3,2249.3 -349.6,2232.6 -326.6,2220.6 		"/>
		<polygon fill="#FFFFFF" points="-840,2196.9 -638,2091.9 -572.8,2115 -602.2,2130 -426,2196.9 -599.8,2287.9 		"/>
		<polygon fill="none" stroke="#F2202B" stroke-width="10" stroke-miterlimit="10" points="-840,2196.9 -638,2091.9 -572.8,2115 
			-602.2,2130 -426,2196.9 -599.8,2287.9 		"/>
		<ellipse fill="#FFFFFF" cx="-669" cy="2167.9" rx="30" ry="15.2"/>
		<ellipse fill="none" stroke="#000000" stroke-width="2" stroke-miterlimit="10" cx="-669" cy="2167.9" rx="30" ry="15.2"/>
		<polygon fill="#FFFFFF" points="-901.6,2229 -840,2196.9 -715.7,2244.5 -600.7,2288.3 -557.3,2266.4 -514.8,2282.5 -663.8,2361 
			-744.6,2330.2 -697.8,2305.5 		"/>
		<polygon fill="none" stroke="#F2202B" stroke-width="10" stroke-miterlimit="10" points="-901.6,2229 -840,2196.9 -715.7,2244.5 
			-600.7,2288.3 -557.3,2266.4 -514.8,2282.5 -663.8,2361 -744.6,2330.2 -697.8,2305.5 		"/>
		<polygon fill="#FFFFFF" points="-677.1,2223.2 -639,2236.5 -679.1,2257.1 -716.4,2243.1 		"/>
		<polygon fill="none" stroke="#000000" stroke-width="2" stroke-miterlimit="10" points="-677.1,2223.2 -639,2236.5 -679.1,2257.1 
			-716.4,2243.1 		"/>
		<polygon fill="#FFFFFF" points="-586.7,2177.2 -548.6,2190.5 -588.8,2211 -626.1,2197.1 		"/>
		<polygon fill="none" stroke="#000000" stroke-width="2" stroke-miterlimit="10" points="-586.7,2177.2 -548.6,2190.5 -588.8,2211 
			-626.1,2197.1 		"/>
		<polygon fill="#FFFFFF" points="-509.7,2074.2 -581.7,2111.8 -617.7,2099.1 -546,2059.6 		"/>
		<polygon fill="none" stroke="#000000" stroke-width="2" stroke-miterlimit="10" points="-509.7,2074.2 -581.7,2111.8 
			-617.7,2099.1 -546,2059.6 		"/>
		<path fill="#EDDD00" d="M-544.1,2088.4c-1.6,4.4-3.6,8.1-8.1,8.1h-33.3c-4.5,0-6.2-3.7-8.1-8.1l-9.9-25.2c0-4.5,3.6-8.1,8.1-8.1
			h53.9c4.5,0,8.1,3.6,8.1,8.1L-544.1,2088.4z"/>
		<path fill="#FFFFFF" d="M-557.7,2072.3c-0.7,1.9-1.6,3.6-3.6,3.6h-14.7c-1.9,0-2.7-1.6-3.6-3.6l-4.4-11.1c0-1.9,1.6-3.6,3.6-3.6
			h23.9c1.9,0,3.6,1.6,3.6,3.6L-557.7,2072.3z"/>
		<polygon fill="#FFFFFF" points="-714.1,2341.8 -678.7,2355.4 -696.5,2365.9 -686.6,2369.4 -753.4,2403.8 -809.3,2382.4 
			-744.8,2348.1 -732.6,2352.5 		"/>
		<polygon fill="none" stroke="#000000" stroke-width="2" stroke-miterlimit="10" points="-714.1,2341.8 -678.7,2355.4 
			-696.5,2365.9 -686.6,2369.4 -753.4,2403.8 -809.3,2382.4 -744.8,2348.1 -732.6,2352.5 		"/>
		<polygon fill="none" stroke="#000000" stroke-width="2" stroke-miterlimit="10" points="-840,2196.9 -638,2091.9 -572.8,2115 
			-602.2,2130 -426,2196.9 -599.8,2287.9 		"/>
		<path fill="#F01B21" d="M-534,2189.4c0,0-4.4,3.6,2.5,7.8h27.8c6.9-4.2,2.5-7.8,2.5-7.8s-11.5-9.3-14.1-11.8c-2.6-2.5-4.8,0-4.8,0
			L-534,2189.4z"/>
		<rect x="-527.8" y="2199.2" fill="#F01B21" width="21.4" height="4.2"/>
		<rect x="-519.2" y="2204.2" fill="#F01B21" width="4.2" height="16.4"/>
		
			<rect x="-538.3" y="2178.9" transform="matrix(-0.769 0.6392 -0.6392 -0.769 456.506 4197.106)" fill="#F01B21" width="16.4" height="4.2"/>
		
			<rect x="-507.9" y="2173.5" transform="matrix(-0.6392 0.769 -0.769 -0.6392 848.7551 3965.3577)" fill="#F01B21" width="4.2" height="16.4"/>
		<polygon fill="#F01B21" points="-535.4,2201 -532.8,2201 -530,2204.4 -527.8,2204.4 -524.8,2212.4 -523,2212.4 -521.5,2214.9 
			-521.5,2220.6 -529.2,2221 -535.4,2210.5 		"/>
		<polygon fill="#F01B21" points="-499.6,2201 -502.2,2201 -504.9,2204.4 -507.1,2204.4 -510,2212.4 -511.9,2212.4 -513.4,2214.9 
			-513.4,2220.6 -505.6,2221 -499.6,2210.5 		"/>
		<path fill="#F01B21" d="M-655,2119.3c0,0-4.4,3.6,2.5,7.8h27.8c6.9-4.2,2.5-7.8,2.5-7.8s-11.5-9.3-14.1-11.8c-2.6-2.5-4.8,0-4.8,0
			L-655,2119.3z"/>
		<rect x="-648.9" y="2129" fill="#F01B21" width="21.4" height="4.2"/>
		<rect x="-640.4" y="2134.1" fill="#F01B21" width="4.2" height="16.4"/>
		
			<rect x="-659.2" y="2108.8" transform="matrix(-0.769 0.6392 -0.6392 -0.769 197.754 4150.3369)" fill="#F01B21" width="16.4" height="4.2"/>
		
			<rect x="-629.1" y="2103.4" transform="matrix(-0.6392 0.769 -0.769 -0.6392 596.1722 3943.5591)" fill="#F01B21" width="4.2" height="16.4"/>
		<polygon fill="#F01B21" points="-656.4,2131 -653.8,2131 -651.1,2134.4 -648.9,2134.4 -646,2142.3 -644.1,2142.3 -642.6,2144.7 
			-642.6,2150.6 -650.2,2151 -656.4,2140.4 		"/>
		<polygon fill="#F01B21" points="-620.6,2131 -623.2,2131 -626,2134.4 -628.2,2134.4 -631.2,2142.3 -633,2142.3 -634.5,2144.7 
			-634.5,2150.6 -626.8,2151 -620.6,2140.4 		"/>
		<path fill="#F01B21" d="M-760.5,2183.6c0,0-4.4,3.6,2.5,7.8h27.8c6.9-4.2,2.5-7.8,2.5-7.8s-11.5-9.3-14.1-11.8
			c-2.6-2.5-4.8,0-4.8,0L-760.5,2183.6z"/>
		<rect x="-754.3" y="2193.3" fill="#F01B21" width="21.4" height="4.2"/>
		<rect x="-745.6" y="2198.4" fill="#F01B21" width="4.2" height="16.4"/>
		
			<rect x="-764.5" y="2173.2" transform="matrix(-0.769 0.6392 -0.6392 -0.769 52.5879 4331.6182)" fill="#F01B21" width="16.4" height="4.2"/>
		
			<rect x="-734.4" y="2167.6" transform="matrix(-0.6392 0.769 -0.769 -0.6392 472.876 4129.8271)" fill="#F01B21" width="4.2" height="16.4"/>
		<polygon fill="#F01B21" points="-761.8,2195.3 -759.2,2195.3 -756.5,2198.7 -754.3,2198.7 -751.3,2206.6 -749.3,2206.6 -748,2209 
			-748,2214.9 -755.7,2215.3 -761.8,2204.7 		"/>
		<polygon fill="#F01B21" points="-726,2195.3 -728.7,2195.3 -731.4,2198.7 -733.4,2198.7 -736.5,2206.6 -738.4,2206.6 -739.8,2209 
			-739.8,2214.9 -732.1,2215.3 -726,2204.7 		"/>
		<path fill="#F01B21" d="M-658.1,2192.5c0,0-4.4,3.6,2.5,7.8h27.8c6.9-4.2,2.5-7.8,2.5-7.8s-11.5-9.3-14.1-11.8
			c-2.6-2.5-4.8,0-4.8,0L-658.1,2192.5z"/>
		<rect x="-652" y="2202.4" fill="#F01B21" width="21.4" height="4.2"/>
		<rect x="-643.3" y="2207.3" fill="#F01B21" width="4.2" height="16.4"/>
		
			<rect x="-662.3" y="2182" transform="matrix(-0.769 0.6392 -0.6392 -0.769 239.1643 4281.9141)" fill="#F01B21" width="16.4" height="4.2"/>
		
			<rect x="-632.1" y="2176.7" transform="matrix(-0.6392 0.769 -0.769 -0.6392 647.6326 4066.0703)" fill="#F01B21" width="4.2" height="16.4"/>
		<polygon fill="#F01B21" points="-659.5,2204.2 -656.9,2204.2 -654,2207.6 -652,2207.6 -649,2215.6 -647,2215.6 -645.7,2218 
			-645.7,2223.8 -653.4,2224.2 -659.5,2213.6 		"/>
		<polygon fill="#F01B21" points="-623.6,2204.2 -626.2,2204.2 -629.1,2207.6 -631.1,2207.6 -634.2,2215.6 -636.1,2215.6 
			-637.5,2218 -637.5,2223.8 -629.8,2224.2 -623.6,2213.6 		"/>
		<polygon fill="#FFFFFF" points="-793.4,2366.5 -772.9,2355.5 -386.3,2504 -406.1,2513.6 		"/>
		<polygon fill="none" stroke="#000000" stroke-width="2" stroke-miterlimit="10" points="-793.4,2366.5 -772.9,2355.5 -386.3,2504 
			-406.1,2513.6 		"/>
		<path fill="#8DC73F" d="M-389.6,1574.9l47.3-24.7l-163.4-60l-25.9,15.1l-119-40.7l-84,47.8l109.7,40.4l-409.8,214.2l-92.4-36
			l-92.2,48.4l-41.5-15.9l-124.7,66.8l-30.2-11l-260,133.1l135.9,53.3l259.5-136l-24.7-10.3l32.9-17.8l52.4,21l-255.5,133.2
			l157.2,59.6l-153.9,81.8l43.9,16.6l-55.9,30.5l79.1,31.5l58-30.4l10.6,4l235.1-123.8l-28.9-10.8l62.8-32.3l27.8,10.7l261.5-138.9
			l7.1,3.6l161.2-88.3l-133.1-50.2l265-138.2l88.4,35.4l90.1-47L-389.6,1574.9z M-1215.2,2022.6l-19.6-7.5l61.7-32.6l21.7,8.6
			L-1215.2,2022.6z"/>
		<polygon fill="#FFFFFF" points="-873.6,1835.7 -768.4,1875.9 -655,1816.3 -758.2,1776 		"/>
		<polygon fill="none" stroke="#000000" stroke-width="2" stroke-miterlimit="10" points="-873.6,1835.7 -768.4,1875.9 -655,1816.3 
			-758.2,1776 		"/>
		<polygon fill="#FFFFFF" points="-1174.8,1776 -1080.9,1809.6 -1039.3,1788.9 -1135.7,1753.9 		"/>
		<polygon fill="none" stroke="#000000" stroke-width="2" stroke-miterlimit="10" points="-1174.8,1776 -1080.9,1809.6 
			-1039.3,1788.9 -1135.7,1753.9 		"/>
		<polygon fill="#FFFFFF" points="-1241,2037.6 -1428.2,2132.5 -1334.5,2167.4 -1147.8,2071.9 		"/>
		<polygon fill="none" stroke="#000000" stroke-width="2" stroke-miterlimit="10" points="-1241,2037.6 -1428.2,2132.5 
			-1334.5,2167.4 -1147.8,2071.9 		"/>
		<polygon fill="#FFFFFF" points="-1419.4,1839.6 -1623.5,1945.3 -1529.8,1980.2 -1326.9,1874.1 		"/>
		<polygon fill="none" stroke="#000000" stroke-width="2" stroke-miterlimit="10" points="-1419.4,1839.6 -1623.5,1945.3 
			-1529.8,1980.2 -1326.9,1874.1 		"/>
		<polygon fill="#FFFFFF" points="-605.9,1496.5 -531.6,1524.6 -574.4,1547.3 -688.2,1505 -629.7,1471.6 -588.9,1485.6 		"/>
		<polygon fill="none" stroke="#000000" stroke-width="2" stroke-miterlimit="10" points="-605.9,1496.5 -531.6,1524.6 
			-574.4,1547.3 -688.2,1505 -629.7,1471.6 -588.9,1485.6 		"/>
		<polygon fill="#FFFFFF" points="-1264.3,1784.7 -1390.7,1850.3 -1353,1864.5 -1269.1,1820 -1170.1,1857.5 -1127.2,1834.9 		"/>
		<polygon fill="none" stroke="#000000" stroke-width="2" stroke-miterlimit="10" points="-1264.3,1784.7 -1390.7,1850.3 
			-1353,1864.5 -1269.1,1820 -1170.1,1857.5 -1127.2,1834.9 		"/>
		<polygon fill="#FFFFFF" points="-1219,2045.7 -1101.8,1985 -1063.8,1999.5 -1178.7,2060.5 		"/>
		<polygon fill="none" stroke="#000000" stroke-width="2" stroke-miterlimit="10" points="-1219,2045.7 -1101.8,1985 
			-1063.8,1999.5 -1178.7,2060.5 		"/>
		<polygon fill="#FFFFFF" points="-1125.2,1975.5 -1036.1,2010.4 -792.2,1882.9 -883.2,1847.4 		"/>
		<polygon fill="none" stroke="#000000" stroke-width="2" stroke-miterlimit="10" points="-1125.2,1975.5 -1036.1,2010.4 
			-792.2,1882.9 -883.2,1847.4 		"/>
		<polygon fill="#FFFFFF" points="-1098.7,1923.9 -1056.2,1939.1 -1099.2,1961.8 -1141.6,1945 		"/>
		<polygon fill="none" stroke="#000000" stroke-width="2" stroke-miterlimit="10" points="-1098.7,1923.9 -1056.2,1939.1 
			-1099.2,1961.8 -1141.6,1945 		"/>
		<polygon fill="#FFFFFF" points="-838.8,1849 -800.3,1863.7 -818.9,1872.5 -855.9,1858.1 		"/>
		<polygon fill="none" stroke="#000000" stroke-width="2" stroke-miterlimit="10" points="-838.8,1849 -800.3,1863.7 -818.9,1872.5 
			-855.9,1858.1 		"/>
		<polygon fill="#7D6791" points="-1280.3,1915.2 -1166.5,1958.1 -1309.8,2033.1 -1425.3,1989.9 		"/>
		<polygon fill="#7D6791" points="-888,1813.8 -1002.7,1769.7 -602.8,1562.3 -488,1605 		"/>
		<polygon fill="#FFFFFF" points="-870.2,1776 -922.6,1755.7 -607.6,1594.8 -555.2,1614.4 		"/>
		<polygon fill="none" stroke="#000000" stroke-width="2" stroke-miterlimit="10" points="-870.2,1776 -922.6,1755.7 -607.6,1594.8 
			-555.2,1614.4 		"/>
		<polygon fill="#FFFFFF" points="-475.7,1598.6 -382.5,1632.7 -342.2,1611.5 -435.8,1576 		"/>
		<polygon fill="none" stroke="#000000" stroke-width="2" stroke-miterlimit="10" points="-475.7,1598.6 -382.5,1632.7 
			-342.2,1611.5 -435.8,1576 		"/>
		<path fill="#EDDD00" d="M-1091.6,1778.1c-1.6,4.4-3.6,8.1-8.1,8.1h-33.3c-4.5,0-6.2-3.7-8.1-8.1l-9.9-25.2c0-4.5,3.6-8.1,8.1-8.1
			h53.9c4.5,0,8.1,3.6,8.1,8.1L-1091.6,1778.1z"/>
		<path fill="#FFFFFF" d="M-1105.2,1761.9c-0.7,1.9-1.6,3.6-3.6,3.6h-14.7c-1.9,0-2.7-1.6-3.6-3.6l-4.4-11.1c0-1.9,1.6-3.6,3.6-3.6
			h23.9c1.9,0,3.6,1.6,3.6,3.6L-1105.2,1761.9z"/>
		<ellipse fill="#079239" cx="-758.2" cy="1819.7" rx="39.2" ry="19.9"/>
		<polygon fill="#FFFFFF" points="-602.8,1562.3 -488,1605 -393.9,1555.2 -508.6,1512.2 		"/>
		<polygon fill="none" stroke="#000000" stroke-width="2" stroke-miterlimit="10" points="-602.8,1562.3 -488,1605 -393.9,1555.2 
			-508.6,1512.2 		"/>
		<polygon fill="#FFFFFF" points="-1166.5,1958.1 -1280.3,1915.2 -1002.7,1769.7 -888,1813.8 		"/>
		<polygon fill="none" stroke="#000000" stroke-width="2" stroke-miterlimit="10" points="-1166.5,1958.1 -1280.3,1915.2 
			-1002.7,1769.7 -888,1813.8 		"/>
		<polygon fill="#8DC73F" points="-1484.1,2184.3 -1626.4,2262 -1442.1,2330.6 -1449.6,2336 -1552.4,2297 -1586.7,2407.3 
			-1555.1,2419 -1528.4,2326.7 -1259.1,2432 -1448.9,2459.4 -1421.5,2473.8 -1184.4,2438.3 -1284.4,2397.9 -989,2241.1 
			-969.4,2249.7 -662.5,2084.9 -826.6,2022.4 -1127.3,2180.5 -1143,2174 -1347.8,2282.9 -1455.4,2242.2 -1405.1,2215.8 		"/>
		<polygon fill="#FFFFFF" points="-916.7,2174 -964.1,2156.1 -981.1,2164.6 -951.1,2177.6 -1011.4,2209.1 -1027.4,2203.4 
			-1067.4,2226 -1103.9,2210.9 -1062,2189.4 -1088.7,2178.7 -829.2,2043.4 -783.4,2062.3 -925,2137 -853.8,2163.1 -968.5,2226 
			-994.9,2215.7 		"/>
		<polygon fill="none" stroke="#000000" stroke-width="2" stroke-miterlimit="10" points="-916.7,2174 -964.1,2156.1 -981.1,2164.6 
			-951.1,2177.6 -1011.4,2209.1 -1027.4,2203.4 -1067.4,2226 -1103.9,2210.9 -1062,2189.4 -1088.7,2178.7 -829.2,2043.4 
			-783.4,2062.3 -925,2137 -853.8,2163.1 -968.5,2226 -994.9,2215.7 		"/>
		<polygon fill="#FFFFFF" points="-1142.2,2196.1 -1408.8,2335.9 -1295.4,2381.3 -1025.1,2241.9 		"/>
		<polygon fill="none" stroke="#000000" stroke-width="2" stroke-miterlimit="10" points="-1142.2,2196.1 -1408.8,2335.9 
			-1295.4,2381.3 -1025.1,2241.9 		"/>
		<polygon fill="#FFFFFF" points="-1410.3,2373.1 -1374.6,2387.2 -1334.5,2365.7 -1371.1,2351 		"/>
		<polygon fill="none" stroke="#000000" stroke-width="2" stroke-miterlimit="10" points="-1410.3,2373.1 -1374.6,2387.2 
			-1334.5,2365.7 -1371.1,2351 		"/>
		<polygon fill="#FFFFFF" points="-1500.7,2247 -1348.7,2304.4 -1391.3,2326.7 -1583,2255.6 -1382.3,2149.6 -1345.3,2163.3 		"/>
		<polygon fill="none" stroke="#000000" stroke-width="2" stroke-miterlimit="10" points="-1500.7,2247 -1348.7,2304.4 
			-1391.3,2326.7 -1583,2255.6 -1382.3,2149.6 -1345.3,2163.3 		"/>
		<polygon fill="#FFFFFF" points="-888.3,2222 -904.7,2215.2 -944.1,2236.2 -968.5,2226 -853.8,2163.1 -925,2137 -783.4,2062.3 
			-686.2,2097.7 -719,2115.2 -698.4,2123.3 -739,2144.4 -758.2,2136.3 -864.7,2193.6 -847.4,2200.8 		"/>
		<polygon fill="none" stroke="#000000" stroke-width="2" stroke-miterlimit="10" points="-888.3,2222 -904.7,2215.2 -944.1,2236.2 
			-968.5,2226 -853.8,2163.1 -925,2137 -783.4,2062.3 -686.2,2097.7 -719,2115.2 -698.4,2123.3 -739,2144.4 -758.2,2136.3 
			-864.7,2193.6 -847.4,2200.8 		"/>
		<polygon fill="#8DC73F" points="-1632.1,1969.4 -1770.9,2043.1 -1663.2,2084.9 -1769.1,2140.9 -1745.8,2149.8 -1662.6,2108.6 
			-1534.7,2155.9 -1615.6,2198.4 -1591.3,2209.8 -1484.7,2149.8 -1559.4,2122.6 -1400.4,2035.9 -1479.9,2005 -1547.9,2042.6 
			-1593.5,2023.9 -1550.5,2001.4 		"/>
		<polygon fill="#FFFFFF" points="-1638.6,2026.3 -1552,2062.2 -1482.8,2023.5 -1444.6,2038.5 -1609.6,2128.2 -1649.1,2113.6 
			-1593.9,2084.1 -1720.9,2034.8 -1580.8,1961.2 -1541.2,1976 		"/>
		<polygon fill="none" stroke="#000000" stroke-width="2" stroke-miterlimit="10" points="-1638.6,2026.3 -1552,2062.2 
			-1482.8,2023.5 -1444.6,2038.5 -1609.6,2128.2 -1649.1,2113.6 -1593.9,2084.1 -1720.9,2034.8 -1580.8,1961.2 -1541.2,1976 		"/>
		<polygon fill="#FFFFFF" points="-630.7,1471.3 -584.6,1487.1 -583,1253.4 -630.7,1233.4 		"/>
		<polygon fill="none" stroke="#535353" stroke-width="4" stroke-miterlimit="10" points="-630.7,1471.3 -584.6,1487.1 -583,1253.4 
			-630.7,1233.4 		"/>
		<polygon fill="#8DC73F" points="-493.1,1363.2 -431.7,1327.7 -466.7,1314 -333,1244.7 -532.5,1171.5 -644.2,1227.7 -566.7,1260.3 
			-541.4,1248.4 -507.8,1260.3 -551.6,1283.2 -583.9,1270.9 -644.2,1304.4 		"/>
		<polygon fill="#FFFFFF" points="-625.3,1311.8 -586.7,1292.1 -553,1306.5 -462.9,1258.8 -542.7,1228.4 -586.1,1252.2 
			-620.9,1237.5 -533.8,1192.7 -381.7,1248.4 -515.3,1320.2 -479.7,1332.5 -517.3,1353.8 		"/>
		<polygon fill="none" stroke="#000000" stroke-width="2" stroke-miterlimit="10" points="-625.3,1311.8 -586.7,1292.1 -553,1306.5 
			-462.9,1258.8 -542.7,1228.4 -586.1,1252.2 -620.9,1237.5 -533.8,1192.7 -381.7,1248.4 -515.3,1320.2 -479.7,1332.5 
			-517.3,1353.8 		"/>
		<path fill="#02ADF1" d="M-442.3,1048.1l117.9-60.7l126.1,45.9l-16.2,9.3l90.9,32.6l293.7-152.8l149.1,54.1l-133.4,70.3l45.6,17.5
			l28.2-14.7l154.3,56.5l-160.8,84.6l-30.6-12.3l-55.5,28.8l-39.1-15.2l-42.5,21.4c0,0,79,18.2,76.1,56.6
			c-2.1,26.7-63.6,56.3-63.6,56.3l-178.1,93.1c0,0-56.3-13-49.5-53.9l-76.8,37.4c0,0-119.6,51.1-206.4,9.8
			c-68.4-43.7,16.6-102.6,16.6-102.6l225.5-117.2l-40.4-16.4l39.1-21l-61.4-22.6l17.1-9.3l-89.1-33.6l-10.4,6.2L-442.3,1048.1z"/>
		<path fill="#FFFFFF" d="M-201.8,1229.3l-179.8,95.3c0,0-76.8,44.5,4.7,77.9c81.4,33.3,213.7-39.6,213.7-39.6l152.3-80.3
			c0,0,16.3-7.3,22.3-1.9c6,5.3-5.9,11.5-5.9,11.5l-73.3,40.6c0,0-67,44,13.3,73.3l21.8,9.3l85.1-45.2l-21.8-8.8
			c0,0-21-5.5-0.4-15.2l53.6-26.6c0,0,87-42.6,21.9-78.1c-55.2-30.2-96.1-6.6-96.1-6.6l-12.2-5.9l-102.4,54.4l-20.7-7.8l-147.8,78.1
			c0,0-15.2,9.6-26.6,2.7c-10.4-6.3,12.5-15.8,12.5-15.8l162-85L-201.8,1229.3z"/>
		<path fill="none" stroke="#000000" stroke-width="2" stroke-miterlimit="10" d="M-201.8,1229.3l-179.8,95.3
			c0,0-76.8,44.5,4.7,77.9c81.4,33.3,213.7-39.6,213.7-39.6l152.3-80.3c0,0,16.3-7.3,22.3-1.9c6,5.3-5.9,11.5-5.9,11.5l-73.3,40.6
			c0,0-67,44,13.3,73.3l21.8,9.3l85.1-45.2l-21.8-8.8c0,0-21-5.5-0.4-15.2l53.6-26.6c0,0,87-42.6,21.9-78.1
			c-55.2-30.2-96.1-6.6-96.1-6.6l-12.2-5.9l-102.4,54.4l-20.7-7.8l-147.8,78.1c0,0-15.2,9.6-26.6,2.7c-10.4-6.3,12.5-15.8,12.5-15.8
			l162-85L-201.8,1229.3z"/>
		<polygon fill="#FFFFFF" points="369.1,1110.9 256.3,1169.4 155.6,1131.3 266.3,1075.5 		"/>
		<polygon fill="none" stroke="#000000" stroke-width="2" stroke-miterlimit="10" points="369.1,1110.9 256.3,1169.4 155.6,1131.3 
			266.3,1075.5 		"/>
		
			<ellipse transform="matrix(-0.2832 -0.9591 0.9591 -0.2832 -1503.5745 1421.6504)" fill="#FFFFFF" cx="-220.5" cy="1272.7" rx="27.8" ry="55.5"/>
		
			<ellipse transform="matrix(-0.2832 -0.9591 0.9591 -0.2832 -1503.5745 1421.6504)" fill="none" stroke="#000000" stroke-width="2" stroke-miterlimit="10" cx="-220.5" cy="1272.7" rx="27.8" ry="55.5"/>
		<polygon fill="#FFFFFF" points="188.9,1143.5 174.1,1150.7 1.4,1087.6 -161,1171.2 -100.3,1193.8 -181.8,1236.6 -144.1,1249.3 
			-63.9,1207.1 9,1233.2 130.7,1170.5 169.1,1184.6 224.9,1156.8 		"/>
		<polygon fill="none" stroke="#F2202B" stroke-width="10" stroke-miterlimit="10" points="188.9,1143.5 174.1,1150.7 1.4,1087.6 
			-161,1171.2 -100.3,1193.8 -181.8,1236.6 -144.1,1249.3 -63.9,1207.1 9,1233.2 130.7,1170.5 169.1,1184.6 224.9,1156.8 		"/>
		<ellipse fill="#FFFFFF" cx="-2.5" cy="1159.4" rx="28.2" ry="14.3"/>
		<ellipse fill="none" stroke="#000000" stroke-width="2" stroke-miterlimit="10" cx="-2.5" cy="1159.4" rx="28.2" ry="14.3"/>
		<path fill="#F01B21" d="M-5.9,1188.9c0,0-3.2,2.6,1.8,5.8h20.5c5-3.1,1.8-5.8,1.8-5.8s-8.5-6.9-10.4-8.7c-1.9-1.8-3.5,0-3.5,0
			L-5.9,1188.9z"/>
		<rect x="-1.3" y="1196.1" fill="#F01B21" width="15.7" height="3.1"/>
		<rect x="5" y="1199.8" fill="#F01B21" width="3.1" height="12.1"/>
		
			<rect x="-9" y="1181.3" transform="matrix(-0.769 0.6392 -0.6392 -0.769 750.9111 2094.3691)" fill="#F01B21" width="12.1" height="3.1"/>
		
			<rect x="13.3" y="1177.3" transform="matrix(-0.6392 0.769 -0.769 -0.6392 934.3486 1928.3121)" fill="#F01B21" width="3.1" height="12.1"/>
		<polygon fill="#F01B21" points="-6.9,1197.5 -5,1197.5 -3,1200 -1.3,1200 0.9,1205.8 2.3,1205.8 3.3,1207.6 3.3,1211.9 
			-2.4,1212.2 -6.9,1204.4 		"/>
		<polygon fill="#F01B21" points="19.4,1197.5 17.5,1197.5 15.5,1200 14,1200 11.8,1205.8 10.4,1205.8 9.3,1207.6 9.3,1211.9 
			15,1212.2 19.4,1204.4 		"/>
		<path fill="#F01B21" d="M-88.1,1163.3c0,0-3.2,2.6,1.8,5.8h20.5c5-3.1,1.8-5.8,1.8-5.8s-8.5-6.9-10.4-8.7c-1.9-1.8-3.5,0-3.5,0
			L-88.1,1163.3z"/>
		<rect x="-83.6" y="1170.6" fill="#F01B21" width="15.7" height="3.1"/>
		<rect x="-77.2" y="1174.2" fill="#F01B21" width="3.1" height="12.1"/>
		
			<rect x="-91.2" y="1155.7" transform="matrix(-0.769 0.6392 -0.6392 -0.769 589.1609 2101.7175)" fill="#F01B21" width="12.1" height="3.1"/>
		
			<rect x="-68.9" y="1151.7" transform="matrix(-0.6392 0.769 -0.769 -0.6392 779.9511 1949.6483)" fill="#F01B21" width="3.1" height="12.1"/>
		<polygon fill="#F01B21" points="-89.1,1171.9 -87.2,1171.9 -85.2,1174.4 -83.6,1174.4 -81.3,1180.3 -79.9,1180.3 -78.9,1182.1 
			-78.9,1186.3 -84.6,1186.6 -89.1,1178.9 		"/>
		<polygon fill="#F01B21" points="-62.8,1171.9 -64.7,1171.9 -66.7,1174.4 -68.2,1174.4 -70.4,1180.3 -71.9,1180.3 -72.9,1182.1 
			-72.9,1186.3 -67.2,1186.6 -62.8,1178.9 		"/>
		<path fill="#F01B21" d="M-5.3,1113.7c0,0-3.2,2.6,1.8,5.8H17c5-3.1,1.8-5.8,1.8-5.8s-8.5-6.9-10.4-8.7c-1.9-1.8-3.5,0-3.5,0
			L-5.3,1113.7z"/>
		<rect x="-0.7" y="1121" fill="#F01B21" width="15.7" height="3.1"/>
		<rect x="5.6" y="1124.6" fill="#F01B21" width="3.1" height="12.1"/>
		
			<rect x="-8.4" y="1106.1" transform="matrix(-0.769 0.6392 -0.6392 -0.769 703.9448 1961.0012)" fill="#F01B21" width="12.1" height="3.1"/>
		
			<rect x="13.9" y="1102.1" transform="matrix(-0.6392 0.769 -0.769 -0.6392 877.5448 1804.6228)" fill="#F01B21" width="3.1" height="12.1"/>
		<polygon fill="#F01B21" points="-6.3,1122.3 -4.4,1122.3 -2.4,1124.8 -0.7,1124.8 1.5,1130.7 2.9,1130.7 3.9,1132.5 3.9,1136.7 
			-1.7,1137 -6.3,1129.2 		"/>
		<polygon fill="#F01B21" points="20,1122.3 18.1,1122.3 16.1,1124.8 14.6,1124.8 12.4,1130.7 11,1130.7 10,1132.5 10,1136.7 
			15.6,1137 20,1129.2 		"/>
		<path fill="#F01B21" d="M58.9,1139.1c0,0-3.2,2.6,1.8,5.8h20.5c5-3.1,1.8-5.8,1.8-5.8s-8.5-6.9-10.4-8.7c-1.9-1.8-3.5,0-3.5,0
			L58.9,1139.1z"/>
		<rect x="63.5" y="1146.3" fill="#F01B21" width="15.7" height="3.1"/>
		<rect x="69.8" y="1150" fill="#F01B21" width="3.1" height="12.1"/>
		
			<rect x="55.8" y="1131.5" transform="matrix(-0.769 0.6392 -0.6392 -0.769 833.7635 1964.8102)" fill="#F01B21" width="12.1" height="3.1"/>
		
			<rect x="78.1" y="1127.5" transform="matrix(-0.6392 0.769 -0.769 -0.6392 1002.3187 1796.8043)" fill="#F01B21" width="3.1" height="12.1"/>
		<polygon fill="#F01B21" points="57.9,1147.6 59.9,1147.6 61.9,1150.2 63.5,1150.2 65.7,1156 67.1,1156 68.1,1157.8 68.1,1162.1 
			62.5,1162.4 57.9,1154.6 		"/>
		<polygon fill="#F01B21" points="84.3,1147.6 82.3,1147.6 80.3,1150.2 78.8,1150.2 76.6,1156 75.2,1156 74.2,1157.8 74.2,1162.1 
			79.8,1162.4 84.3,1154.6 		"/>
		<polygon fill="#FFFFFF" points="-2.5,1229.1 -105.1,1283.5 -139.5,1270.2 -37.1,1216.7 		"/>
		<polygon fill="none" stroke="#000000" stroke-width="2" stroke-miterlimit="10" points="-2.5,1229.1 -105.1,1283.5 -139.5,1270.2 
			-37.1,1216.7 		"/>
		<polygon fill="#FFFFFF" points="-201.8,1229.3 -181.8,1236.6 -100.3,1193.8 -120.4,1186.3 		"/>
		<polygon fill="none" stroke="#000000" stroke-width="2" stroke-miterlimit="10" points="-201.8,1229.3 -181.8,1236.6 
			-100.3,1193.8 -120.4,1186.3 		"/>
		<polygon fill="#FFFFFF" points="-125.5,1255.8 -144.1,1249.3 -63.9,1207.1 -45.2,1213.8 		"/>
		<polygon fill="none" stroke="#000000" stroke-width="2" stroke-miterlimit="10" points="-125.5,1255.8 -144.1,1249.3 
			-63.9,1207.1 -45.2,1213.8 		"/>
		<polygon fill="#FFFFFF" points="-391.3,1043.3 -325.5,1009.1 -244.6,1037.8 -310.4,1072.8 		"/>
		<polygon fill="none" stroke="#000000" stroke-width="2" stroke-miterlimit="10" points="-391.3,1043.3 -325.5,1009.1 
			-244.6,1037.8 -310.4,1072.8 		"/>
		<polygon fill="#FFFFFF" points="-126.7,1096.8 168,944.6 270.5,981 140.6,1051.5 199.5,1072.8 98.8,1125.6 65.9,1112.5 
			80.9,1104.3 54.9,1094.7 41.2,1103 6.9,1088.6 49.4,1065.3 86.4,1079 104.2,1068.7 68.6,1057 196.1,989.2 162.5,976.8 
			-145.9,1140.6 -184,1126.8 -165.8,1118 -302.9,1068.8 -260.6,1046.3 		"/>
		<polygon fill="none" stroke="#000000" stroke-width="2" stroke-miterlimit="10" points="-126.7,1096.8 168,944.6 270.5,981 
			140.6,1051.5 199.5,1072.8 98.8,1125.6 65.9,1112.5 80.9,1104.3 54.9,1094.7 41.2,1103 6.9,1088.6 49.4,1065.3 86.4,1079 
			104.2,1068.7 68.6,1057 196.1,989.2 162.5,976.8 -145.9,1140.6 -184,1126.8 -165.8,1118 -302.9,1068.8 -260.6,1046.3 		"/>
		<polygon fill="#FFFFFF" points="369.1,1110.9 256.3,1169.4 155.6,1131.3 266.3,1075.5 		"/>
		<polygon fill="none" stroke="#000000" stroke-width="2" stroke-miterlimit="10" points="369.1,1110.9 256.3,1169.4 155.6,1131.3 
			266.3,1075.5 		"/>
		<ellipse fill="#FFFFFF" cx="-315.7" cy="1042.6" rx="28.2" ry="14.3"/>
		<ellipse fill="none" stroke="#000000" stroke-width="2" stroke-miterlimit="10" cx="-315.7" cy="1042.6" rx="28.2" ry="14.3"/>
		<polygon fill="#F01B21" points="-366.6,1035.1 -341.9,1022.5 -344,1035.1 		"/>
		<path fill="#EDDD00" d="M-76,1257.3c-1.6,4.4-3.6,8.1-8.1,8.1h-33.3c-4.5,0-6.2-3.7-8.1-8.1l-9.9-25.2c0-4.5,3.6-8.1,8.1-8.1h53.9
			c4.5,0,8.1,3.6,8.1,8.1L-76,1257.3z"/>
		<path fill="#FFFFFF" d="M-89.6,1241.1c-0.7,1.9-1.6,3.6-3.6,3.6h-14.7c-1.9,0-2.7-1.6-3.6-3.6l-4.4-11.1c0-1.9,1.6-3.6,3.6-3.6
			h23.9c1.9,0,3.6,1.6,3.6,3.6L-89.6,1241.1z"/>
		<path fill="#FFFFFF" d="M223.1,1130.2c0,11.4,50.4,24.7,77.4-7.9l1-655.2l-78.4,17.4C223.1,484.5,223.1,1119,223.1,1130.2z"/>
		<path fill="none" stroke="#535353" stroke-width="4" stroke-miterlimit="10" d="M223.1,1130.2c0,11.4,50.4,24.7,77.4-7.9l1-655.2
			l-78.4,17.4C223.1,484.5,223.1,1119,223.1,1130.2z"/>
		<path fill="#02ADF1" d="M287.5,577.7c0,0,6.7-5.3-3.8-11.9H241c-10.6,6.6-3.8,11.9-3.8,11.9s17.5,14.3,21.5,18.1
			c4,3.8,7.3,0,7.3,0L287.5,577.7z"/>
		<circle fill="#02ADF1" cx="262.3" cy="614.8" r="8.4"/>
		<path fill="#F8B13C" d="M237.2,1080.5c0,0-6.7,5.3,3.8,11.9h42.6c10.6-6.6,3.8-11.9,3.8-11.9s-17.5-14.3-21.5-18.1s-7.3,0-7.3,0
			L237.2,1080.5z"/>
		<circle fill="#F8B13C" cx="262.3" cy="1043.5" r="8.4"/>
		<polygon fill="#02ADF1" points="59,2223.9 81.9,2050.4 260.1,2033.9 274.6,1902.4 398.7,1893.2 386.6,2019.7 506.8,2007.9 
			506.8,1999.7 453.8,2004.2 468.3,1884 528.2,1878.1 528.5,1874.7 296.6,1789.3 429.7,1719 567.1,1769.8 526.6,1792.1 
			629.2,1830.1 653.9,1827 708.3,1821.9 733.8,1832.4 730.7,1857.5 772.7,1853 776.9,1813.3 881,1803.7 905.2,1790.1 1024,1834.8 
			1012.6,1947.6 960.5,1951.8 957.9,1976.1 1024,1969.2 1018.9,2027.1 743.4,2055.3 748.1,1998.3 756.3,1997.6 758.8,1973.4 
			708.3,1977.6 704.6,2017.5 662.5,2022 661.8,2028.9 738.5,2021.1 726.1,2118.9 566.6,2134.8 563.8,2172.8 		"/>
		<polygon fill="#FFFFFF" points="566.6,1866.2 552.9,1859.3 591.9,1837.4 614.1,1845.9 697.5,1837.4 693.8,1878 564.7,1891.8 		"/>
		<polygon fill="none" stroke="#000000" stroke-width="2" stroke-miterlimit="10" points="566.6,1866.2 552.9,1859.3 591.9,1837.4 
			614.1,1845.9 697.5,1837.4 693.8,1878 564.7,1891.8 		"/>
		<polygon fill="#7D6791" points="500.8,1898.7 986,1846.6 977.8,1938 490.8,1984.6 		"/>
		<polygon fill="#FFFFFF" points="919.4,1803.7 957.8,1816.4 938.6,1827.4 934.9,1852 804.4,1866 808.8,1827.4 894.7,1817.4 		"/>
		<polygon fill="none" stroke="#000000" stroke-width="2" stroke-miterlimit="10" points="919.4,1803.7 957.8,1816.4 938.6,1827.4 
			934.9,1852 804.4,1866 808.8,1827.4 894.7,1817.4 		"/>
		<polygon fill="#FFFFFF" points="541.1,2017.5 672,2006 674.9,1966.9 547,1979.5 		"/>
		<polygon fill="none" stroke="#000000" stroke-width="2" stroke-miterlimit="10" points="541.1,2017.5 672,2006 674.9,1966.9 
			547,1979.5 		"/>
		<polygon fill="#FFFFFF" points="572.9,2014.6 628.3,2009.8 625.1,2048.1 697.5,2040.8 693.2,2107 534.2,2122.5 536.4,2096.4 
			640.6,2086.4 641.2,2071.8 567.1,2076.8 		"/>
		<polygon fill="none" stroke="#000000" stroke-width="2" stroke-miterlimit="10" points="572.9,2014.6 628.3,2009.8 625.1,2048.1 
			697.5,2040.8 693.2,2107 534.2,2122.5 536.4,2096.4 640.6,2086.4 641.2,2071.8 567.1,2076.8 		"/>
		<polygon fill="#FFFFFF" points="309,1915.8 366.5,1910 351.4,2039.2 294.8,2045 		"/>
		<polygon fill="none" stroke="#000000" stroke-width="2" stroke-miterlimit="10" points="309,1915.8 366.5,1910 351.4,2039.2 
			294.8,2045 		"/>
		<polygon fill="#FFFFFF" points="797.4,1955.3 923.4,1943.2 919.4,1979.1 793.9,1989.8 		"/>
		<polygon fill="none" stroke="#000000" stroke-width="2" stroke-miterlimit="10" points="797.4,1955.3 923.4,1943.2 919.4,1979.1 
			793.9,1989.8 		"/>
		<polygon fill="#FFFFFF" points="881,1999.1 986,1989.8 984.2,2012.8 781,2033.4 783.2,2009.8 802.2,2007.8 804.4,1988.8 
			883.5,1982.1 		"/>
		<polygon fill="none" stroke="#000000" stroke-width="2" stroke-miterlimit="10" points="881,1999.1 986,1989.8 984.2,2012.8 
			781,2033.4 783.2,2009.8 802.2,2007.8 804.4,1988.8 883.5,1982.1 		"/>
		<path fill="#EDDD00" d="M828.7,2020.4c-1.6,4.4-3.6,8.1-8.1,8.1h-33.3c-4.5,0-6.2-3.7-8.1-8.1l-9.9-25.2c0-4.5,3.6-8.1,8.1-8.1
			h53.9c4.5,0,8.1,3.6,8.1,8.1L828.7,2020.4z"/>
		<path fill="#FFFFFF" d="M815.1,2004.2c-0.7,1.9-1.6,3.6-3.6,3.6h-14.7c-1.9,0-2.7-1.6-3.6-3.6l-4.4-11.1c0-1.9,1.6-3.6,3.6-3.6
			h23.9c1.9,0,3.6,1.6,3.6,3.6L815.1,2004.2z"/>
		<polygon fill="#7D6791" points="490.8,2024.8 541.1,2043.9 530.5,2158.7 97.4,2204.3 115.6,2063.5 		"/>
		<polygon fill="#FFFFFF" points="294.8,2045 351.4,2039.2 351.4,2052.2 438.7,2045 436.9,2066.2 196.1,2092.3 192,2132.6 
			536,2098.4 534.2,2122.5 134.8,2164.2 145.8,2073.1 294.8,2059 		"/>
		<polygon fill="none" stroke="#000000" stroke-width="2" stroke-miterlimit="10" points="294.8,2045 351.4,2039.2 351.4,2052.2 
			438.7,2045 436.9,2066.2 196.1,2092.3 192,2132.6 536,2098.4 534.2,2122.5 134.8,2164.2 145.8,2073.1 294.8,2059 		"/>
		
			<ellipse transform="matrix(-0.128 -0.9918 0.9918 -0.128 -1823.9122 2615.6204)" fill="#FFFFFF" cx="237.9" cy="2109.6" rx="13.7" ry="32.3"/>
		
			<ellipse transform="matrix(-0.128 -0.9918 0.9918 -0.128 -1823.9122 2615.6204)" fill="none" stroke="#000000" stroke-width="2" stroke-miterlimit="10" cx="237.9" cy="2109.6" rx="13.7" ry="32.3"/>
		
			<ellipse transform="matrix(-0.128 -0.9918 0.9918 -0.128 -1723.7122 2685.9338)" fill="#FFFFFF" cx="318.9" cy="2100.7" rx="13.7" ry="32.3"/>
		
			<ellipse transform="matrix(-0.128 -0.9918 0.9918 -0.128 -1723.7122 2685.9338)" fill="none" stroke="#000000" stroke-width="2" stroke-miterlimit="10" cx="318.9" cy="2100.7" rx="13.7" ry="32.3"/>
		
			<ellipse transform="matrix(-0.128 -0.9918 0.9918 -0.128 -1625.3755 2756.1853)" fill="#FFFFFF" cx="399" cy="2092.6" rx="13.7" ry="32.3"/>
		
			<ellipse transform="matrix(-0.128 -0.9918 0.9918 -0.128 -1625.3755 2756.1853)" fill="none" stroke="#000000" stroke-width="2" stroke-miterlimit="10" cx="399" cy="2092.6" rx="13.7" ry="32.3"/>
		
			<ellipse transform="matrix(-0.128 -0.9918 0.9918 -0.128 -1523.7 2831.0544)" fill="#FFFFFF" cx="482.7" cy="2085.4" rx="13.7" ry="32.3"/>
		
			<ellipse transform="matrix(-0.128 -0.9918 0.9918 -0.128 -1523.7 2831.0544)" fill="none" stroke="#000000" stroke-width="2" stroke-miterlimit="10" cx="482.7" cy="2085.4" rx="13.7" ry="32.3"/>
		
			<ellipse transform="matrix(-0.128 -0.9918 0.9918 -0.128 -1934.4749 2652.5044)" fill="#FFFFFF" cx="198.9" cy="2176.7" rx="13.7" ry="32.3"/>
		
			<ellipse transform="matrix(-0.128 -0.9918 0.9918 -0.128 -1934.4749 2652.5044)" fill="none" stroke="#000000" stroke-width="2" stroke-miterlimit="10" cx="198.9" cy="2176.7" rx="13.7" ry="32.3"/>
		
			<ellipse transform="matrix(-0.128 -0.9918 0.9918 -0.128 -1833.9132 2723.3416)" fill="#FFFFFF" cx="280.3" cy="2167.9" rx="13.7" ry="32.3"/>
		
			<ellipse transform="matrix(-0.128 -0.9918 0.9918 -0.128 -1833.9132 2723.3416)" fill="none" stroke="#000000" stroke-width="2" stroke-miterlimit="10" cx="280.3" cy="2167.9" rx="13.7" ry="32.3"/>
		
			<ellipse transform="matrix(-0.128 -0.9918 0.9918 -0.128 -1735.938 2793.0679)" fill="#FFFFFF" cx="359.9" cy="2159.7" rx="13.7" ry="32.3"/>
		
			<ellipse transform="matrix(-0.128 -0.9918 0.9918 -0.128 -1735.938 2793.0679)" fill="none" stroke="#000000" stroke-width="2" stroke-miterlimit="10" cx="359.9" cy="2159.7" rx="13.7" ry="32.3"/>
		
			<ellipse transform="matrix(-0.128 -0.9918 0.9918 -0.128 -1633.9335 2868.1907)" fill="#FFFFFF" cx="443.9" cy="2152.4" rx="13.7" ry="32.3"/>
		
			<ellipse transform="matrix(-0.128 -0.9918 0.9918 -0.128 -1633.9335 2868.1907)" fill="none" stroke="#000000" stroke-width="2" stroke-miterlimit="10" cx="443.9" cy="2152.4" rx="13.7" ry="32.3"/>
		<polygon fill="#02ADF1" points="0.1,1585.2 -233.8,1499.6 369.1,1184.6 1305.3,1525.4 707.4,1846.6 298.3,1695.5 248.9,1720 
			122.7,1674.1 168,1647.8 84.8,1616 		"/>
		<polygon fill="#FFFFFF" points="708.3,1821.9 1259.3,1531.3 369.1,1204.1 -181.8,1492.9 		"/>
		<polygon fill="none" stroke="#000000" stroke-width="2" stroke-miterlimit="10" points="708.3,1821.9 1259.3,1531.3 369.1,1204.1 
			-181.8,1492.9 		"/>
		<polygon fill="#FFFFFF" points="451.2,1726.9 344.8,1783.5 552.9,1859.3 591.9,1837.4 478.4,1795.8 542.2,1760.5 		"/>
		<polygon fill="none" stroke="#000000" stroke-width="2" stroke-miterlimit="10" points="451.2,1726.9 344.8,1783.5 552.9,1859.3 
			591.9,1837.4 478.4,1795.8 542.2,1760.5 		"/>
		<polygon fill="#FFFFFF" points="251.3,1698.8 301.4,1671.5 219.7,1641.2 170.3,1668.8 		"/>
		<polygon fill="none" stroke="#000000" stroke-width="2" stroke-miterlimit="10" points="251.3,1698.8 301.4,1671.5 219.7,1641.2 
			170.3,1668.8 		"/>
		<polygon fill="#FAED32" points="474.6,1151.6 468.3,1240.6 787.5,1211.2 774.9,1326.1 633.5,1338.7 626.2,1403.8 566.9,1437.1 
			575.1,1440.1 460.4,1504.3 374.5,1470.6 362.1,1477.8 308.2,1448.4 401.7,1399.3 447.3,1415.9 469.5,1402.2 483.9,1405.6 
			500.1,1395.3 505.2,1352.4 271.2,1376.4 283.8,1261.3 341.1,1257.4 354.4,1163.9 		"/>
		<polygon fill="#FFFFFF" points="438.8,1172.6 429.4,1263.3 374.3,1268.8 385,1201.4 368.9,1204.1 354.4,1179.7 		"/>
		<polygon fill="none" stroke="#000000" stroke-width="2" stroke-miterlimit="10" points="438.8,1172.6 429.4,1263.3 374.3,1268.8 
			385,1201.4 368.9,1204.1 354.4,1179.7 		"/>
		<path fill="#FFFFFF" d="M355.2,1911.2c0,1.9,8.8,4.6,13.6-1.1l0.1-707l-13.7-23.3C355.2,1179.7,355.2,1909.2,355.2,1911.2z"/>
		<path fill="none" stroke="#535353" stroke-width="4" stroke-miterlimit="10" d="M355.2,1911.2c0,1.9,8.8,4.6,13.6-1.1l0.1-707
			l-13.7-23.3C355.2,1179.7,355.2,1909.2,355.2,1911.2z"/>
		<polygon fill="#FFFFFF" points="317.8,1274.7 374.3,1268.8 784.8,1226.7 775.2,1307.6 308.2,1356.9 		"/>
		<polygon fill="none" stroke="#000000" stroke-width="2" stroke-miterlimit="10" points="317.8,1274.7 374.3,1268.8 784.8,1226.7 
			775.2,1307.6 308.2,1356.9 		"/>
		<polygon fill="#FFFFFF" points="372.9,1299.6 447.3,1291.8 444.2,1317.5 581.7,1304.6 581.7,1277.7 500.4,1285.9 503.5,1261.3 
			430.6,1267.7 430.7,1263.2 374.3,1268.8 		"/>
		<polyline fill="none" stroke="#000000" stroke-width="2" stroke-miterlimit="10" points="373.2,1293.7 372.9,1299.6 378.9,1299 		
			"/>
		
			<line fill="none" stroke="#000000" stroke-width="2" stroke-miterlimit="10" stroke-dasharray="12.5677,12.5677" x1="391.4" y1="1297.7" x2="435.1" y2="1293.1"/>
		<polyline fill="none" stroke="#000000" stroke-width="2" stroke-miterlimit="10" points="441.4,1292.5 447.3,1291.8 446.6,1297.8 
					"/>
		<polyline fill="none" stroke="#000000" stroke-width="2" stroke-miterlimit="10" points="444.9,1311.5 444.2,1317.5 450.2,1316.9 
					"/>
		
			<line fill="none" stroke="#000000" stroke-width="2" stroke-miterlimit="10" stroke-dasharray="11.4623,11.4623" x1="461.6" y1="1315.8" x2="570" y2="1305.7"/>
		<polyline fill="none" stroke="#000000" stroke-width="2" stroke-miterlimit="10" points="575.7,1305.1 581.7,1304.6 581.7,1298.6 
					"/>
		<polyline fill="none" stroke="#000000" stroke-width="2" stroke-miterlimit="10" points="581.7,1283.7 581.7,1277.7 575.7,1278.3 
					"/>
		
			<line fill="none" stroke="#000000" stroke-width="2" stroke-miterlimit="10" stroke-dasharray="13.9396,13.9396" x1="561.8" y1="1279.7" x2="513.3" y2="1284.6"/>
		<polyline fill="none" stroke="#000000" stroke-width="2" stroke-miterlimit="10" points="506.3,1285.3 500.4,1285.9 501.1,1280 		
			"/>
		<polyline fill="none" stroke="#000000" stroke-width="2" stroke-miterlimit="10" points="502.8,1267.2 503.5,1261.3 497.6,1261.8 
					"/>
		
			<line fill="none" stroke="#000000" stroke-width="2" stroke-miterlimit="10" stroke-dasharray="12.2412,12.2412" x1="485.4" y1="1262.9" x2="442.7" y2="1266.6"/>
		<polyline fill="none" stroke="#000000" stroke-width="2" stroke-miterlimit="10" points="436.6,1267.2 430.6,1267.7 430.7,1263.2 
			424.8,1263.8 		"/>
		
			<line fill="none" stroke="#000000" stroke-width="2" stroke-miterlimit="10" stroke-dasharray="14.9176,14.9176" x1="409.9" y1="1265.3" x2="387.7" y2="1267.5"/>
		<polyline fill="none" stroke="#000000" stroke-width="2" stroke-miterlimit="10" points="380.2,1268.2 374.3,1268.8 374,1274.8 		
			"/>
		
			<line fill="none" stroke="#000000" stroke-width="2" stroke-miterlimit="10" stroke-dasharray="6.2905,6.2905" x1="373.7" y1="1281.1" x2="373.3" y2="1290.5"/>
		<path fill="#FFFFFF" d="M517.9,1288.7l39.9-3.8c0,0,8.6-0.5,11.1,2.6c2.5,3.2,1.6,9.3-11.1,13l-41.3,4.4c0,0-13.8,1.2-15.4-5.5
			C499.4,1290.9,517.9,1288.7,517.9,1288.7z"/>
		<path fill="none" stroke="#000000" stroke-width="2" stroke-miterlimit="10" d="M517.9,1288.7l39.9-3.8c0,0,8.6-0.5,11.1,2.6
			c2.5,3.2,1.6,9.3-11.1,13l-41.3,4.4c0,0-13.8,1.2-15.4-5.5C499.4,1290.9,517.9,1288.7,517.9,1288.7z"/>
		<polygon fill="#FFFFFF" points="542.7,1332.2 535.6,1399.6 480.4,1428.9 516.1,1442.9 588.7,1404.2 596.1,1326.5 		"/>
		<polygon fill="none" stroke="#000000" stroke-width="2" stroke-miterlimit="10" points="542.7,1332.2 535.6,1399.6 480.4,1428.9 
			516.1,1442.9 588.7,1404.2 596.1,1326.5 		"/>
		<polygon fill="#FFFFFF" points="469.4,1424.9 526.7,1447.6 464.4,1482.9 404.1,1460.2 		"/>
		<polygon fill="none" stroke="#000000" stroke-width="2" stroke-miterlimit="10" points="469.4,1424.9 526.7,1447.6 464.4,1482.9 
			404.1,1460.2 		"/>
		<polygon fill="#FFFFFF" points="396.1,1435.2 426.8,1447.9 443.2,1439.1 395.4,1419.6 326.4,1458.3 341.1,1466.4 		"/>
		<polygon fill="none" stroke="#000000" stroke-width="2" stroke-miterlimit="10" points="396.1,1435.2 426.8,1447.9 443.2,1439.1 
			395.4,1419.6 326.4,1458.3 341.1,1466.4 		"/>
		<polygon fill="#FFFFFF" points="319.6,2418.4 333,2423.2 344,1468 325.3,1457.7 		"/>
		<polygon fill="none" stroke="#535353" stroke-width="4" stroke-miterlimit="10" points="319.6,2418.4 333,2423.2 344,1468 
			325.3,1457.7 		"/>
		<polygon fill="#02ADF1" points="1628.9,1533.8 1729,1569.4 1403.7,1743.1 1478.1,1769.5 1387.6,1819.6 1311.6,1791.5 
			1145.7,1881.5 905.2,1790.1 971.6,1754 916.8,1733.2 1505.1,1418.6 1703.9,1492.2 		"/>
		<polygon fill="#FFFFFF" points="919.4,1803.7 1023.6,1748.3 1060.6,1761.6 1031.3,1778 1151.9,1821.9 1276.6,1757.1 1261.5,1751 
			1302.2,1727.7 1316.9,1734.2 1466.3,1656.4 1450.7,1650.6 1490,1629 1507.4,1635.1 1601.1,1583.8 1539,1560.5 1577.4,1538.6 
			1681.5,1575.2 1149.1,1857.5 990.1,1798.6 957.8,1816.4 		"/>
		<polygon fill="none" stroke="#000000" stroke-width="2" stroke-miterlimit="10" points="919.4,1803.7 1023.6,1748.3 
			1060.6,1761.6 1031.3,1778 1151.9,1821.9 1276.6,1757.1 1261.5,1751 1302.2,1727.7 1316.9,1734.2 1466.3,1656.4 1450.7,1650.6 
			1490,1629 1507.4,1635.1 1601.1,1583.8 1539,1560.5 1577.4,1538.6 1681.5,1575.2 1149.1,1857.5 990.1,1798.6 957.8,1816.4 		"/>
		<polygon fill="#FFFFFF" points="1389,1797.6 1431.1,1774.3 1359.1,1746.1 1315.8,1769.1 		"/>
		<polygon fill="none" stroke="#000000" stroke-width="2" stroke-miterlimit="10" points="1389,1797.6 1431.1,1774.3 1359.1,1746.1 
			1315.8,1769.1 		"/>
		<polygon fill="#FFFFFF" points="963.7,1726.4 1119.5,1783.1 1166.5,1757.5 1213.6,1774.9 1352.6,1701.3 1305.4,1683.9 
			1355.3,1656.4 1403.7,1674.3 1540.8,1602.6 1491.4,1585.2 1653.6,1497.4 1501,1442.5 		"/>
		<polygon fill="none" stroke="#F2202B" stroke-width="10" stroke-miterlimit="10" points="963.7,1726.4 1119.5,1783.1 
			1166.5,1757.5 1213.6,1774.9 1352.6,1701.3 1305.4,1683.9 1355.3,1656.4 1403.7,1674.3 1540.8,1602.6 1491.4,1585.2 
			1653.6,1497.4 1501,1442.5 		"/>
		<polygon fill="#FFFFFF" points="1167.4,1671.5 1221.4,1690.3 1164.5,1719.4 1111.7,1699.6 		"/>
		<polygon fill="none" stroke="#000000" stroke-width="2" stroke-miterlimit="10" points="1167.4,1671.5 1221.4,1690.3 
			1164.5,1719.4 1111.7,1699.6 		"/>
		<ellipse fill="#FFFFFF" cx="1375.3" cy="1548.4" rx="21.5" ry="9.9"/>
		<ellipse fill="none" stroke="#000000" stroke-width="2" stroke-miterlimit="10" cx="1375.3" cy="1548.4" rx="21.5" ry="9.9"/>
		<ellipse fill="#FFFFFF" cx="1445.2" cy="1572.7" rx="21.5" ry="9.9"/>
		<ellipse fill="none" stroke="#000000" stroke-width="2" stroke-miterlimit="10" cx="1445.2" cy="1572.7" rx="21.5" ry="9.9"/>
		<path fill="#F01B21" d="M1407.1,1604.5c0,0-4.4,3.6,2.5,7.8h27.8c6.9-4.2,2.5-7.8,2.5-7.8s-11.5-9.3-14.1-11.8
			c-2.6-2.5-4.8,0-4.8,0L1407.1,1604.5z"/>
		<rect x="1413.3" y="1614.2" fill="#F01B21" width="21.4" height="4.2"/>
		<rect x="1421.9" y="1619.3" fill="#F01B21" width="4.2" height="16.4"/>
		
			<rect x="1402.8" y="1594.2" transform="matrix(-0.769 0.6392 -0.6392 -0.769 3516.6248 1921.98)" fill="#F01B21" width="16.4" height="4.2"/>
		
			<rect x="1433.1" y="1588.8" transform="matrix(-0.6392 0.769 -0.769 -0.6392 3580.71 1514.1378)" fill="#F01B21" width="4.2" height="16.4"/>
		<polygon fill="#F01B21" points="1405.7,1616.1 1408.3,1616.1 1411.2,1619.6 1413.3,1619.6 1416.3,1627.5 1418.2,1627.5 
			1419.6,1629.9 1419.6,1635.7 1411.9,1636.2 1405.7,1625.6 		"/>
		<polygon fill="#F01B21" points="1441.7,1616.1 1438.9,1616.1 1436.2,1619.6 1434.1,1619.6 1431.1,1627.5 1429.2,1627.5 
			1427.8,1629.9 1427.8,1635.7 1435.5,1636.2 1441.7,1625.6 		"/>
		<path fill="#F01B21" d="M1497.3,1530.3c0,0-4.4,3.6,2.5,7.8h27.8c6.9-4.2,2.5-7.8,2.5-7.8s-11.5-9.3-14.1-11.8
			c-2.6-2.5-4.8,0-4.8,0L1497.3,1530.3z"/>
		<rect x="1503.3" y="1540.1" fill="#F01B21" width="21.4" height="4.2"/>
		<rect x="1512" y="1545.1" fill="#F01B21" width="4.2" height="16.4"/>
		
			<rect x="1493.1" y="1520" transform="matrix(-0.769 0.6392 -0.6392 -0.769 3628.8091 1733.0601)" fill="#F01B21" width="16.4" height="4.2"/>
		
			<rect x="1523.2" y="1514.5" transform="matrix(-0.6392 0.769 -0.769 -0.6392 3671.3047 1323.0354)" fill="#F01B21" width="4.2" height="16.4"/>
		<polygon fill="#F01B21" points="1495.9,1542 1498.5,1542 1501.3,1545.4 1503.3,1545.4 1506.3,1553.4 1508.3,1553.4 1509.6,1555.7 
			1509.6,1561.6 1502,1562 1495.9,1551.4 		"/>
		<polygon fill="#F01B21" points="1531.7,1542 1529.1,1542 1526.4,1545.4 1524.2,1545.4 1521.2,1553.4 1519.2,1553.4 1517.9,1555.7 
			1517.9,1561.6 1525.5,1562 1531.7,1551.4 		"/>
		<path fill="#F01B21" d="M1224.5,1641.8c0,0-4.4,3.6,2.5,7.8h27.8c6.9-4.2,2.5-7.8,2.5-7.8s-11.5-9.3-14.1-11.8
			c-2.6-2.5-4.8,0-4.8,0L1224.5,1641.8z"/>
		<rect x="1230.7" y="1651.5" fill="#F01B21" width="21.4" height="4.2"/>
		<rect x="1239.2" y="1656.6" fill="#F01B21" width="4.2" height="16.4"/>
		
			<rect x="1220.3" y="1631.5" transform="matrix(-0.769 0.6392 -0.6392 -0.769 3217.5161 2104.5635)" fill="#F01B21" width="16.4" height="4.2"/>
		
			<rect x="1250.4" y="1625.9" transform="matrix(-0.6392 0.769 -0.769 -0.6392 3309.8865 1715.4934)" fill="#F01B21" width="4.2" height="16.4"/>
		<polygon fill="#F01B21" points="1223.2,1653.4 1225.8,1653.4 1228.5,1656.9 1230.7,1656.9 1233.6,1664.8 1235.5,1664.8 
			1236.9,1667.1 1236.9,1673 1229.2,1673.4 1223.2,1662.9 		"/>
		<polygon fill="#F01B21" points="1258.9,1653.4 1256.3,1653.4 1253.6,1656.9 1251.4,1656.9 1248.4,1664.8 1246.5,1664.8 
			1245.1,1667.1 1245.1,1673 1252.8,1673.4 1258.9,1662.9 		"/>
		<path fill="#F01B21" d="M1283.7,1567.8c0,0-4.4,3.6,2.5,7.8h27.8c6.9-4.2,2.5-7.8,2.5-7.8s-11.5-9.3-14.1-11.8
			c-2.6-2.5-4.8,0-4.8,0L1283.7,1567.8z"/>
		<rect x="1289.9" y="1577.6" fill="#F01B21" width="21.4" height="4.2"/>
		<rect x="1298.5" y="1582.6" fill="#F01B21" width="4.2" height="16.4"/>
		
			<rect x="1279.5" y="1557.5" transform="matrix(-0.769 0.6392 -0.6392 -0.769 3274.8904 1935.8328)" fill="#F01B21" width="16.4" height="4.2"/>
		
			<rect x="1309.7" y="1552" transform="matrix(-0.6392 0.769 -0.769 -0.6392 3350.3032 1548.7499)" fill="#F01B21" width="4.2" height="16.4"/>
		<polygon fill="#F01B21" points="1282.4,1579.4 1285,1579.4 1287.9,1582.8 1289.9,1582.8 1292.9,1590.8 1294.8,1590.8 
			1296.2,1593.3 1296.2,1599 1288.5,1599.4 1282.4,1588.9 		"/>
		<polygon fill="#F01B21" points="1318.3,1579.4 1315.5,1579.4 1312.8,1582.8 1310.7,1582.8 1307.7,1590.8 1305.8,1590.8 
			1304.4,1593.3 1304.4,1599 1312.1,1599.4 1318.3,1588.9 		"/>
		<path fill="#EDDD00" d="M1405.8,1768.8c-1.6,4.4-3.6,8.1-8.1,8.1h-33.3c-4.5,0-6.2-3.7-8.1-8.1l-9.9-25.2c0-4.5,3.6-8.1,8.1-8.1
			h53.9c4.5,0,8.1,3.6,8.1,8.1L1405.8,1768.8z"/>
		<path fill="#FFFFFF" d="M1392.2,1752.7c-0.7,1.9-1.6,3.6-3.6,3.6H1374c-1.9,0-2.7-1.6-3.6-3.6l-4.4-11.1c0-1.9,1.6-3.6,3.6-3.6
			h23.9c1.9,0,3.6,1.6,3.6,3.6L1392.2,1752.7z"/>
		<polygon fill="#F8B13C" points="1591.1,533.4 1617.2,519.7 1770.9,574.7 1479.6,726.7 1419.6,704.5 1396.1,717.1 1422.5,727.1 
			1434.5,720.4 1585.9,774.7 1560.4,788.8 1676.5,831.4 1518.1,915.8 1367.2,860.6 1398.5,843.2 1367.2,831.8 1177.7,934.2 
			1127.6,914.5 1087.3,936 935.2,879.8 1304.9,684.6 1312.5,687.8 1336.2,675.6 1329,672.7 1501.7,580.8 		"/>
		<path fill="#FFFFFF" d="M1483,1506.2c0,11.4,50.4,24.7,77.4-7.9l1-657.9l-78.4,17.4C1483,857.9,1483,1495,1483,1506.2z"/>
		<path fill="none" stroke="#535353" stroke-width="4" stroke-miterlimit="10" d="M1483,1506.2c0,11.4,50.4,24.7,77.4-7.9l1-657.9
			l-78.4,17.4C1483,857.9,1483,1495,1483,1506.2z"/>
		<path fill="#03AFF0" d="M1547.3,956c0,0,6.7-5.3-3.8-11.9h-42.6c-10.6,6.6-3.8,11.9-3.8,11.9s17.5,14.3,21.5,18.1
			c4,3.8,7.3,0,7.3,0L1547.3,956z"/>
		<circle fill="#03AFF0" cx="1522.2" cy="993.2" r="8.4"/>
		<polygon fill="#7D6791" points="1091.2,912.4 987,875.4 1305.7,706.1 1410.5,745.9 		"/>
		<path fill="#F8B13C" d="M1497,1424.2c0,0-6.7,5.3,3.8,11.9h42.6c10.6-6.6,3.8-11.9,3.8-11.9s-17.5-14.3-21.5-18.1
			c-4-3.8-7.3,0-7.3,0L1497,1424.2z"/>
		<circle fill="#F8B13C" cx="1522.2" cy="1387.2" r="8.4"/>
		<polygon fill="#FFFFFF" points="1417.8,856.6 1526.8,798.4 1630.5,836.1 1520.2,894.3 		"/>
		<polygon fill="none" stroke="#000000" stroke-width="2" stroke-miterlimit="10" points="1417.8,856.6 1526.8,798.4 1630.5,836.1 
			1520.2,894.3 		"/>
		<polygon fill="#FFFFFF" points="1122,896 1078.8,881.6 1154.2,840.5 1198.8,857 		"/>
		<polygon fill="none" stroke="#000000" stroke-width="2" stroke-miterlimit="10" points="1122,896 1078.8,881.6 1154.2,840.5 
			1198.8,857 		"/>
		<polygon fill="#FFFFFF" points="1197.4,800 1154.2,785.6 1229.6,744.5 1274.1,761.1 		"/>
		<polygon fill="none" stroke="#000000" stroke-width="2" stroke-miterlimit="10" points="1197.4,800 1154.2,785.6 1229.6,744.5 
			1274.1,761.1 		"/>
		<polygon fill="#FFFFFF" points="1350.9,723.3 1308.7,707.2 1381.1,667.7 1427.9,683.1 		"/>
		<polygon fill="none" stroke="#000000" stroke-width="2" stroke-miterlimit="10" points="1350.9,723.3 1308.7,707.2 1381.1,667.7 
			1427.9,683.1 		"/>
		<polygon fill="#FFFFFF" points="1434.5,741.8 1540.1,780.3 1478.4,812.4 1490.7,816.5 1451.7,837 1403.7,819.9 1463.3,789.5 
			1431.1,778.8 1178.2,912.4 1128.7,892.8 1169.6,871.6 1182.4,876.5 		"/>
		<polygon fill="none" stroke="#000000" stroke-width="2" stroke-miterlimit="10" points="1434.5,741.8 1540.1,780.3 1478.4,812.4 
			1490.7,816.5 1451.7,837 1403.7,819.9 1463.3,789.5 1431.1,778.8 1178.2,912.4 1128.7,892.8 1169.6,871.6 1182.4,876.5 		"/>
		<ellipse fill="#535353" cx="1522.2" cy="851.7" rx="39.2" ry="19.9"/>
		<polygon fill="#FFFFFF" points="1483.6,704.1 1377.6,665.7 1617.5,541.6 1719.6,579.1 		"/>
		<polygon fill="none" stroke="#000000" stroke-width="2" stroke-miterlimit="10" points="1483.6,704.1 1377.6,665.7 1617.5,541.6 
			1719.6,579.1 		"/>
		<path fill="#F8B13C" d="M906.5,611.5l-257,132.7l66.9,23.7l-88.1,48l-70-25.8l-3.7,2.1l51.4,19.2l-147.1,79.4l-54.4-20.1
			l-103.6,53.2L2.4,817.2l351.3-181.6c0,0-23-16.2-5.5-31.3c0,0-38.7,5.9-46.9-16.4c-8.2-22.3,28.1-35.6,28.1-35.6l82.2-43.2
			c0,0,55.2-21.4,110.8-13.4c55.5,8,56.2,25.9,56.2,25.9l31.3-16.9L906.5,611.5z"/>
		<path fill="#FFFFFF" d="M531.2,515.7c0,0-12.7-9-45.4-8.6s-54.6,10-54.6,10l-95.7,50.6l47.3,12c0,0,65.5-33.2,77.2-38.9
			c6.7-3.3,12.2-2.3,15.8-1c5.3,4.7-5.3,9.3-5.3,9.3s-19.1,10.1-36.2,19.3l-47.2,25.2c0,0-16.7,8.9-14,19.7
			c2.7,10.8,29.6,20,29.6,20L452,608c-10.4-4.2-2.3-8.8-2.3-8.8l84.3-44.7C573.4,530,531.2,515.7,531.2,515.7z"/>
		<path fill="none" stroke="#000000" stroke-width="2" stroke-miterlimit="10" d="M531.2,515.7c0,0-12.7-9-45.4-8.6
			s-54.6,10-54.6,10l-95.7,50.6l47.3,12c0,0,65.5-33.2,77.2-38.9c6.7-3.3,12.2-2.3,15.8-1c5.3,4.7-5.3,9.3-5.3,9.3
			s-19.1,10.1-36.2,19.3l-47.2,25.2c0,0-16.7,8.9-14,19.7c2.7,10.8,29.6,20,29.6,20L452,608c-10.4-4.2-2.3-8.8-2.3-8.8l84.3-44.7
			C573.4,530,531.2,515.7,531.2,515.7z"/>
		<path fill="#FFFFFF" d="M332.3,579.5c0,11.1,37.6,24.1,57.8-7.7l0.7-520.4l-58.5,8.2C332.3,59.6,332.3,568.4,332.3,579.5z"/>
		<path fill="none" stroke="#535353" stroke-width="4" stroke-miterlimit="10" d="M332.3,579.5c0,11.1,37.6,24.1,57.8-7.7l0.7-520.4
			l-58.5,8.2C332.3,59.6,332.3,568.4,332.3,579.5z"/>
		<ellipse fill="#FFFFFF" cx="359.1" cy="575.7" rx="34.9" ry="19.8"/>
		<ellipse fill="none" stroke="#000000" stroke-width="2.6173" stroke-miterlimit="10" cx="359.1" cy="575.7" rx="34.9" ry="19.8"/>
		<polygon fill="#7D6791" points="301.5,902.6 561.5,769 861.8,614.8 606.3,527.9 50.4,809.3 		"/>
		<polygon fill="none" stroke="#F2202B" stroke-width="10" stroke-miterlimit="10" points="301.5,902.6 561.5,769 861.8,614.8 
			606.3,527.9 50.4,809.3 		"/>
		<polygon fill="#FFFFFF" points="92,824.8 306.1,719.8 365.8,740.8 497.2,670.5 402.8,633.2 452.1,607.7 497.2,623.1 651.4,543.3 
			819,600.3 612.2,710.7 550.8,687.9 504.5,710.7 605.9,746.2 558.2,772.3 455.3,734.5 414,759.2 510,795.1 455.3,822.2 422,809.3 
			265.4,889.2 		"/>
		<polygon fill="none" stroke="#000000" stroke-width="2" stroke-miterlimit="10" points="92,824.8 306.1,719.8 365.8,740.8 
			497.2,670.5 402.8,633.2 452.1,607.7 497.2,623.1 651.4,543.3 819,600.3 612.2,710.7 550.8,687.9 504.5,710.7 605.9,746.2 
			558.2,772.3 455.3,734.5 414,759.2 510,795.1 455.3,822.2 422,809.3 265.4,889.2 		"/>
		
			<ellipse transform="matrix(-0.128 -0.9918 0.9918 -0.128 -449.3054 1195.9491)" fill="#FFFFFF" cx="301.1" cy="795.5" rx="26.2" ry="61.8"/>
		
			<ellipse transform="matrix(-0.128 -0.9918 0.9918 -0.128 -449.3054 1195.9491)" fill="none" stroke="#000000" stroke-width="2" stroke-miterlimit="10" cx="301.1" cy="795.5" rx="26.2" ry="61.8"/>
		
			<ellipse transform="matrix(-0.128 -0.9918 0.9918 -0.128 53.8473 1332.1125)" fill="#FFFFFF" cx="612.5" cy="642.4" rx="26.2" ry="61.8"/>
		
			<ellipse transform="matrix(-0.128 -0.9918 0.9918 -0.128 53.8473 1332.1125)" fill="none" stroke="#000000" stroke-width="2" stroke-miterlimit="10" cx="612.5" cy="642.4" rx="26.2" ry="61.8"/>
		<polygon fill="#FFFFFF" points="558.2,772.3 605.9,746.2 674.2,770.7 624.2,798.9 		"/>
		<polygon fill="none" stroke="#000000" stroke-width="2" stroke-miterlimit="10" points="558.2,772.3 605.9,746.2 674.2,770.7 
			624.2,798.9 		"/>
		<polygon fill="#FFFFFF" points="510,795.1 564.5,815.1 459.7,870.6 422.7,856.9 486,823.3 468.3,816.9 		"/>
		<polygon fill="none" stroke="#000000" stroke-width="2" stroke-miterlimit="10" points="510,795.1 564.5,815.1 459.7,870.6 
			422.7,856.9 486,823.3 468.3,816.9 		"/>
		<path fill="#FFFFFF" d="M454.5,856.5c0,1.9,8.8,4.4,13.6-1.4l0.1-515l-13.7,3C454.5,343.2,454.5,854.4,454.5,856.5z"/>
		<path fill="none" stroke="#535353" stroke-width="4" stroke-miterlimit="10" d="M454.5,856.5c0,1.9,8.8,4.4,13.6-1.4l0.1-515
			l-13.7,3C454.5,343.2,454.5,854.4,454.5,856.5z"/>
		<path fill="#F01B21" d="M290.8,727.5c0,0-4.4,3.6,2.5,7.8h27.8c6.9-4.2,2.5-7.8,2.5-7.8s-11.5-9.3-14.1-11.8c-2.6-2.5-4.8,0-4.8,0
			L290.8,727.5z"/>
		<rect x="297" y="737.4" fill="#F01B21" width="21.4" height="4.2"/>
		<rect x="305.5" y="742.3" fill="#F01B21" width="4.2" height="16.4"/>
		
			<rect x="286.6" y="717.2" transform="matrix(-0.769 0.6392 -0.6392 -0.769 981.3809 1084.0789)" fill="#F01B21" width="16.4" height="4.2"/>
		
			<rect x="316.9" y="711.8" transform="matrix(-0.6392 0.769 -0.769 -0.6392 1076.6168 934.8876)" fill="#F01B21" width="4.2" height="16.4"/>
		<polygon fill="#F01B21" points="289.4,739.2 292,739.2 294.8,742.6 297,742.6 299.8,750.5 301.8,750.5 303.3,753 303.3,758.8 
			295.5,759.2 289.4,748.6 		"/>
		<polygon fill="#F01B21" points="325.2,739.2 322.6,739.2 319.9,742.6 317.7,742.6 314.6,750.5 312.9,750.5 311.4,753 311.4,758.8 
			319,759.2 325.2,748.6 		"/>
		<path fill="#F01B21" d="M595.5,659.5c0,0-4.4,3.6,2.5,7.8h27.8c6.9-4.2,2.5-7.8,2.5-7.8s-11.5-9.3-14.1-11.8c-2.6-2.5-4.8,0-4.8,0
			L595.5,659.5z"/>
		<rect x="601.7" y="669.3" fill="#F01B21" width="21.4" height="4.2"/>
		<rect x="610.3" y="674.2" fill="#F01B21" width="4.2" height="16.4"/>
		
			<rect x="591.3" y="649.1" transform="matrix(-0.769 0.6392 -0.6392 -0.769 1476.7822 768.8143)" fill="#F01B21" width="16.4" height="4.2"/>
		
			<rect x="621.5" y="643.6" transform="matrix(-0.6392 0.769 -0.769 -0.6392 1523.5959 588.9523)" fill="#F01B21" width="4.2" height="16.4"/>
		<polygon fill="#F01B21" points="594.1,671 596.7,671 599.5,674.6 601.7,674.6 604.7,682.6 606.6,682.6 608,684.9 608,690.8 
			600.3,691.2 594.1,680.5 		"/>
		<polygon fill="#F01B21" points="629.9,671 627.3,671 624.6,674.6 622.5,674.6 619.5,682.6 617.6,682.6 616.2,684.9 616.2,690.8 
			623.9,691.2 629.9,680.5 		"/>
		<path fill="#EDDD00" d="M651.7,771.8c-1.6,4.4-3.6,8.1-8.1,8.1h-33.3c-4.5,0-6.2-3.7-8.1-8.1l-9.9-25.2c0-4.5,3.6-8.1,8.1-8.1
			h53.9c4.5,0,8.1,3.6,8.1,8.1L651.7,771.8z"/>
		<path fill="#FFFFFF" d="M638.1,755.6c-0.7,1.9-1.6,3.6-3.6,3.6h-14.7c-1.9,0-2.7-1.6-3.6-3.6l-4.4-11.1c0-1.9,1.6-3.6,3.6-3.6
			h23.9c1.9,0,3.6,1.6,3.6,3.6L638.1,755.6z"/>
		<path fill="#F8B13C" d="M-152.5,311.1l60.4,23.4l9-3.7l190.1,69.8l-67.2,35l101.7,37L107,490.7l148,53.5l161.3-84.6l-118.7-42.2
			l105.7-54.4l52.1,19.6l25.2-14l146.9,53.7l157.9-84.6l-32.9-12.1l13.8-6.7l127.3,45.4l90.6-48.2l-127.8-44.3l159.8-81.7
			l-84.2-30.2L669.7,298.5l-30-12.2L786,209.1L732.9,191l173.8-90.7L603.6-6.8L465.3,66.3c0,0,0.7-14-49.1-28.5
			c-55.7-16.3-96.2,3.4-96.2,3.4s-68.1,28.1-2.5,49.6L310,94L285,84.4L-152.5,311.1z"/>
		<polygon fill="#FFFFFF" points="299.6,395 45.3,303.5 601.5,15.7 855.4,106.2 		"/>
		<polygon fill="none" stroke="#F2202B" stroke-width="10" stroke-miterlimit="10" points="299.6,395 45.3,303.5 601.5,15.7 
			855.4,106.2 		"/>
		<polygon fill="#FFFFFF" points="130.1,300 337.5,189.8 503.5,252 301.5,360 		"/>
		<polygon fill="none" stroke="#000000" stroke-width="2" stroke-miterlimit="10" points="130.1,300 337.5,189.8 503.5,252 
			301.5,360 		"/>
		<polygon fill="#FFFFFF" points="392.8,161.1 600.3,50.9 766.3,113.2 564.1,221.2 		"/>
		<polygon fill="none" stroke="#000000" stroke-width="2" stroke-miterlimit="10" points="392.8,161.1 600.3,50.9 766.3,113.2 
			564.1,221.2 		"/>
		<polygon fill="#FFFFFF" points="705.3,330.6 668.3,318.6 929.8,181.6 966.4,194.6 809.2,275.4 939,323 899,344.9 768.8,297 		"/>
		<polygon fill="none" stroke="#000000" stroke-width="2" stroke-miterlimit="10" points="705.3,330.6 668.3,318.6 929.8,181.6 
			966.4,194.6 809.2,275.4 939,323 899,344.9 768.8,297 		"/>
		<ellipse fill="#FFFFFF" cx="902.1" cy="326.7" rx="16.7" ry="8.5"/>
		<ellipse fill="none" stroke="#000000" stroke-width="2" stroke-miterlimit="10" cx="902.1" cy="326.7" rx="16.7" ry="8.5"/>
		<polygon fill="#FFFFFF" points="300.8,111.4 280.8,105.1 -105.8,306.3 -87.9,313.1 		"/>
		<polygon fill="none" stroke="#000000" stroke-width="2" stroke-miterlimit="10" points="300.8,111.4 280.8,105.1 -105.8,306.3 
			-87.9,313.1 		"/>
		<path fill="#FFFFFF" d="M390.3,49.4l29.6,12.2c0,0,12.7,6.9,13.4,11.7c0.7,4.8,6.2,15.9-13.7,26.3L324,150c0,0-21.9,9.6-54.6,10
			c-32.6,0.4-45.4-8.6-45.4-8.6l51.1-26.3c0,0,8.2,7.3,19.9,1.4s61-32.2,61-32.2s12.2-5.2,4.1-10.3l-21.8-9L390.3,49.4z"/>
		<path fill="none" stroke="#000000" stroke-width="2" stroke-miterlimit="10" d="M390.3,49.4l29.6,12.2c0,0,12.7,6.9,13.4,11.7
			c0.7,4.8,6.2,15.9-13.7,26.3L324,150c0,0-21.9,9.6-54.6,10c-32.6,0.4-45.4-8.6-45.4-8.6l51.1-26.3c0,0,8.2,7.3,19.9,1.4
			s61-32.2,61-32.2s12.2-5.2,4.1-10.3l-21.8-9L390.3,49.4z"/>
		<path fill="#FFFFFF" d="M234.7,179.8c-2.9-10.7-12.7-14.1-12.7-14.1l-13.4-6.3L160,184.6c10.4,4.4,3.3,8.8,3.3,8.8L146,203.6
			c0,0-12.2,7.8-9.5,18.6c2.7,10.8,12.6,14.4,12.6,14.4l12.3,6.9l49.2-25.5c-10.4-4.2-2.3-8.8-2.3-8.8l17.1-10.6
			C225.6,198.6,237.6,190.5,234.7,179.8z"/>
		<path fill="none" stroke="#000000" stroke-width="2" stroke-miterlimit="10" d="M234.7,179.8c-2.9-10.7-12.7-14.1-12.7-14.1
			l-13.4-6.3L160,184.6c10.4,4.4,3.3,8.8,3.3,8.8L146,203.6c0,0-12.2,7.8-9.5,18.6c2.7,10.8,12.6,14.4,12.6,14.4l12.3,6.9l49.2-25.5
			c-10.4-4.2-2.3-8.8-2.3-8.8l17.1-10.6C225.6,198.6,237.6,190.5,234.7,179.8z"/>
		<polygon fill="#FFFFFF" points="-41.5,289 227.9,388.4 165.5,422.4 230.1,445 189.6,467.2 88.9,430.6 154.5,396.1 -82,310 		"/>
		<polygon fill="none" stroke="#000000" stroke-width="2" stroke-miterlimit="10" points="-41.5,289 227.9,388.4 165.5,422.4 
			230.1,445 189.6,467.2 88.9,430.6 154.5,396.1 -82,310 		"/>
		<path fill="#F01B21" d="M180.7,310.6c0,0-4.4,3.6,2.5,7.8H211c6.9-4.2,2.5-7.8,2.5-7.8s-11.5-9.3-14.1-11.8c-2.6-2.5-4.8,0-4.8,0
			L180.7,310.6z"/>
		<rect x="186.9" y="320.5" fill="#F01B21" width="21.4" height="4.2"/>
		<rect x="195.5" y="325.4" fill="#F01B21" width="4.2" height="16.4"/>
		
			<rect x="176.5" y="300.4" transform="matrix(-0.769 0.6392 -0.6392 -0.769 520.1813 417.0157)" fill="#F01B21" width="16.4" height="4.2"/>
		
			<rect x="206.8" y="294.9" transform="matrix(-0.6392 0.769 -0.769 -0.6392 575.5938 336.2454)" fill="#F01B21" width="4.2" height="16.4"/>
		<polygon fill="#F01B21" points="179.4,322.3 182,322.3 184.7,325.7 186.9,325.7 189.9,333.7 191.8,333.7 193.2,336.1 193.2,341.9 
			185.5,342.3 179.4,331.7 		"/>
		<polygon fill="#F01B21" points="215.1,322.3 212.5,322.3 209.8,325.7 207.7,325.7 204.7,333.7 202.8,333.7 201.4,336.1 
			201.4,341.9 209.1,342.3 215.1,331.7 		"/>
		<path fill="#F01B21" d="M657.1,63.4c0,0-4.4,3.6,2.5,7.8h27.8c6.9-4.2,2.5-7.8,2.5-7.8s-11.5-9.3-14.1-11.8c-2.6-2.5-4.8,0-4.8,0
			L657.1,63.4z"/>
		<rect x="663.3" y="73.1" fill="#F01B21" width="21.4" height="4.2"/>
		<rect x="671.9" y="78" fill="#F01B21" width="4.2" height="16.4"/>
		
			<rect x="653" y="52.9" transform="matrix(-0.769 0.6392 -0.6392 -0.769 1204.9576 -325.2986)" fill="#F01B21" width="16.4" height="4.2"/>
		
			<rect x="683.3" y="47.5" transform="matrix(-0.6392 0.769 -0.769 -0.6392 1166.3839 -435.835)" fill="#F01B21" width="4.2" height="16.4"/>
		<polygon fill="#F01B21" points="655.7,74.9 658.5,74.9 661.2,78.4 663.3,78.4 666.3,86.4 668.2,86.4 669.6,88.7 669.6,94.6 
			661.9,95 655.7,84.3 		"/>
		<polygon fill="#F01B21" points="691.6,74.9 689,74.9 686.2,78.4 684.1,78.4 681.1,86.4 679.2,86.4 677.8,88.7 677.8,94.6 
			685.5,95 691.6,84.3 		"/>
		
			<ellipse transform="matrix(-0.1347 -0.9909 0.9909 -0.1347 61.6111 620.4634)" fill="#FFFFFF" cx="301.7" cy="283.3" rx="29.5" ry="56.7"/>
		
			<ellipse transform="matrix(-0.1347 -0.9909 0.9909 -0.1347 61.6111 620.4634)" fill="none" stroke="#000000" stroke-width="2" stroke-miterlimit="10" cx="301.7" cy="283.3" rx="29.5" ry="56.7"/>
		
			<ellipse transform="matrix(-0.1347 -0.9909 0.9909 -0.1347 560.6005 747.5245)" fill="#FFFFFF" cx="606.7" cy="129" rx="29.5" ry="56.7"/>
		
			<ellipse transform="matrix(-0.1347 -0.9909 0.9909 -0.1347 560.6005 747.5245)" fill="none" stroke="#000000" stroke-width="2" stroke-miterlimit="10" cx="606.7" cy="129" rx="29.5" ry="56.7"/>
		
			<ellipse transform="matrix(-0.1347 -0.9909 0.9909 -0.1347 347.087 422.8976)" fill="#FFFFFF" cx="358.2" cy="59.9" rx="14.8" ry="36.9"/>
		
			<ellipse transform="matrix(-0.1347 -0.9909 0.9909 -0.1347 347.087 422.8976)" fill="none" stroke="#000000" stroke-width="2" stroke-miterlimit="10" cx="358.2" cy="59.9" rx="14.8" ry="36.9"/>
		<polygon fill="#FFFFFF" points="633.5,307.2 526.8,362.8 629,399.1 737.2,341.5 		"/>
		<polygon fill="none" stroke="#000000" stroke-width="2" stroke-miterlimit="10" points="633.5,307.2 526.8,362.8 629,399.1 
			737.2,341.5 		"/>
		<ellipse fill="#1B75BC" cx="633.5" cy="352.8" rx="39.2" ry="19.9"/>
		<polygon fill="#FFFFFF" points="264.6,427.5 365.8,463.9 258.4,521.5 156.6,485.2 		"/>
		<polygon fill="none" stroke="#000000" stroke-width="2" stroke-miterlimit="10" points="264.6,427.5 365.8,463.9 258.4,521.5 
			156.6,485.2 		"/>
		<ellipse fill="#02ADF1" cx="258.4" cy="472.7" rx="39.2" ry="19.9"/>
		<polygon fill="#FFFFFF" points="518.2,328.5 562.9,344 603.2,323 560.7,307.2 737.2,214 680.2,189.8 637.4,210.6 663.5,221.7 
			422,346.6 459.9,360 		"/>
		<polygon fill="none" stroke="#000000" stroke-width="2" stroke-miterlimit="10" points="518.2,328.5 562.9,344 603.2,323 
			560.7,307.2 737.2,214 680.2,189.8 637.4,210.6 663.5,221.7 422,346.6 459.9,360 		"/>
		<ellipse fill="#FFFFFF" cx="462.3" cy="342.3" rx="7.3" ry="3.4"/>
		<ellipse fill="none" stroke="#000000" stroke-width="2" stroke-miterlimit="10" cx="462.3" cy="342.3" rx="7.3" ry="3.4"/>
		<polygon fill="#F8B13C" points="1129.7,447.7 1082.4,473 1025.8,452.5 990,471.6 862.9,424.7 897.9,406.1 846.5,388.1 
			1083.6,263.2 1322.7,348.8 1221.7,401.8 		"/>
		<polygon fill="#FFFFFF" points="1132.7,426.5 1172,405.3 1592.2,554.8 1550.8,576.2 		"/>
		<polygon fill="none" stroke="#000000" stroke-width="2" stroke-miterlimit="10" points="1132.7,426.5 1172,405.3 1592.2,554.8 
			1550.8,576.2 		"/>
		<polygon fill="#FFFFFF" points="1296.8,339.5 1086.4,450.9 896.2,384 1110.8,271.3 		"/>
		<polygon fill="none" stroke="#000000" stroke-width="2" stroke-miterlimit="10" points="1296.8,339.5 1086.4,450.9 896.2,384 
			1110.8,271.3 		"/>
		<polygon fill="#FFFFFF" points="993.6,449.1 911.6,419.4 947,401.8 1028.2,430.3 		"/>
		<polygon fill="none" stroke="#000000" stroke-width="2" stroke-miterlimit="10" points="993.6,449.1 911.6,419.4 947,401.8 
			1028.2,430.3 		"/>
		<polygon fill="#FFFFFF" points="939,323 983.8,338 941.9,360 899,344.9 		"/>
		<polygon fill="none" stroke="#000000" stroke-width="2" stroke-miterlimit="10" points="939,323 983.8,338 941.9,360 899,344.9 		
			"/>
	</g>
</g>
</svg>
