<?xml version="1.0" encoding="utf-8"?>
<!-- Generator: Adobe Illustrator 21.1.0, SVG Export Plug-In . SVG Version: 6.00 Build 0)  -->
<svg version="1.1" xmlns="http://www.w3.org/2000/svg" xmlns:xlink="http://www.w3.org/1999/xlink" x="0px" y="0px" width="743.2px"
	 height="906px" viewBox="0 0 743.2 906" style="enable-background:new 0 0 743.2 906;" xml:space="preserve">
<style type="text/css">
	.st0{fill:#75528B;}
	.st1{fill:#A3A4CD;}
	.st2{fill:#3970AB;}
	.st3{fill:#F5FFFF;}
	.st4{fill:#F0F9F8;}
	.st5{fill:#94C0B2;}
	.st6{fill:#0E8944;}
	.st7{fill:#AED180;}
	.st8{fill:#8EBE3E;}
	.st9{fill:#F1FECD;}
	.st10{fill:#E1E4DF;}
	.st11{fill:#339DD5;}
	.st12{fill:#FFFFFF;}
	.st13{fill:#EBB752;}
	.st14{fill:#E7EF2F;}
	.st15{fill:#C8EBFF;}
	.st16{fill:#ECBD3B;}
	.st17{fill:#8BC057;}
</style>
<g id="Layer_4">
	<polygon class="st0" points="7.1,890.4 143,819.6 131.7,814 162.8,798.4 203.9,816.8 133.1,853.6 144.4,860.7 121.7,873.4 
		109,864.9 31.1,906 	"/>
</g>
<g id="Layer_11">
	<polygon class="st1" points="162.8,802.7 162.8,733.3 184,741.8 184,812.6 	"/>
</g>
<g id="Layer_2">
	<polygon class="st2" points="185.4,754.5 225.1,770.1 236.4,764.4 270.4,778.6 294.5,764.4 261.9,751.7 269,747.5 233.6,731.9 
		249.1,723.4 310,744.6 329.8,730.5 315.7,724.8 335.5,712.1 319.9,705 378,672.4 319.9,651.2 528,540.8 496.9,526.6 355.3,598.8 
		344,594.6 317.1,608.7 328.4,613 186.9,688 213.8,697.9 141.6,734.7 	"/>
</g>
<g id="Layer_18">
	<polygon class="st3" points="264.7,760.2 264.7,539.4 286,547.8 286,770.1 	"/>
</g>
<g id="Layer_17">
	<polygon class="st4" points="298.7,668.2 298.7,363.8 319.9,372.3 319.9,678.1 	"/>
</g>
<g id="Layer_12">
	<polygon class="st5" points="205.3,676.7 205.3,607.3 226.5,615.8 226.5,686.6 	"/>
</g>
<g id="Layer_3">
	<polygon class="st6" points="84.9,624.3 150.1,651.2 252,601.6 188.3,576.2 	"/>
</g>
<g id="Layer_15">
	<polygon class="st7" points="172.7,593.1 172.7,523.8 193.9,532.3 193.9,603.1 	"/>
</g>
<g id="Layer_5">
	<polygon class="st8" points="474.2,543.6 489.8,533.7 465.7,523.8 448.8,532.3 399.2,512.5 372.3,526.6 305.8,499.7 319.9,491.2 
		288.8,479.9 269,491.2 236.4,474.2 118.9,533.7 100.5,526.6 286,433.2 256.2,420.4 307.2,393.5 325.6,400.6 351.1,386.5 
		335.5,379.4 344,375.1 305.8,358.2 295.9,363.8 269,352.5 246.3,365.2 273.2,376.6 185.4,420.4 167,411.9 144.4,424.7 135.9,420.4 
		107.6,434.6 100.5,430.4 39.6,461.5 49.5,467.2 17,484.1 39.6,494.1 22.6,504 34,509.6 48.1,502.5 75,515.3 57.9,526.4 8.5,506.8 
		0,536.5 11.3,540.8 18.4,521 51.4,531 66,537 29.7,542.2 38.2,549.3 83.1,543.9 134.5,564.8 201,529.4 229.3,545 213.8,553.5 
		339.8,605.9 387.9,579 437.4,598.8 511,559.2 	"/>
</g>
<g id="Layer_16">
	<polygon class="st9" points="410.5,526.6 410.5,324.2 431.8,332.7 431.8,536.5 	"/>
</g>
<g id="Layer_13">
	<polygon class="st10" points="210.9,410.5 210.9,271.8 232.2,288.8 232.2,430.4 	"/>
</g>
<g id="Layer_6">
	<polygon class="st11" points="315.7,409.1 370.9,372.3 359.6,368.1 370.9,361 383.6,363.8 376.6,370.9 409.1,385 420.4,380.8 
		434.6,383.6 414.8,397.8 464.3,414.8 454.4,414.8 454.4,447.3 441.7,447.3 441.7,421.9 411.9,420.4 409.1,448.8 369.5,448.8 
		364.6,492.7 479.9,485.6 479.9,477.1 512.5,474.2 518.1,458.7 580.4,453 580.4,410.5 600.2,420.4 642.7,400.6 655.4,407.7 
		685.2,393.5 669.6,385 737.5,351.1 719.1,341.2 731.9,332.7 686.6,311.4 645.5,335.5 438.8,259.1 393.5,283.1 376.6,269 
		383.6,266.1 389.3,270.4 403.5,263.3 407.7,269 445.9,247.7 403.5,232.2 427.5,216.6 389.3,202.4 327,237.8 280.3,219.4 
		254.8,233.6 312.9,254.8 304.4,259.1 311.4,266.1 247.7,305.8 295.9,322.8 321.3,304.4 328.4,314.3 298.7,332.7 351.1,351.1 
		335.5,358.2 308.6,348.2 254.8,382.2 	"/>
</g>
<g id="Layer_20">
	<polygon class="st12" points="400.6,209.5 400.6,103.3 421.9,111.8 421.9,219.4 	"/>
</g>
<g id="Layer_19">
	<polygon class="st12" points="676.7,331.3 676.7,177 697.9,185.4 697.9,341.2 	"/>
</g>
<g id="Layer_7">
	<polygon class="st13" points="603.1,103.3 676.7,131.7 556.3,196.8 591.7,212.3 600.2,209.5 608.7,212.3 648.4,191.1 697.9,212.6 
		734.7,188.3 680.9,162.8 743.2,127.4 712.1,113.2 703.6,118.9 627.1,93.4 654,79.3 597.4,56.6 570.5,70.8 545,63.7 580.4,45.3 
		562,35.4 499.7,69.4 496.9,66.5 525.2,49.5 519.5,45.3 553.5,25.5 485.6,0 457.2,14.2 437.4,4.2 317.1,69.4 369.5,90.6 355.3,97.7 
		378,106.2 369.5,110.4 407.7,126 451.6,99.1 437.4,90.6 443.1,83.5 479.9,101.1 521,86.4 549.3,93.4 539.4,100.5 571.9,111.8 
		580.4,103.3 594.6,111.8 	"/>
</g>
<g id="Layer_8">
	<path class="st14" d="M421.9,322.8l34,17l38.2-24.1l-1.4-17l35.4-2.8v-29.7c0,0-72.2,9.9-70.8,8.5c1.4-1.4,2.8-19.8,2.8-19.8
		l-29.7,2.8v21.2h-18.4v29.7l18.4-2.8L421.9,322.8z"/>
</g>
<g id="Layer_14">
	<polygon class="st15" points="479.9,286 479.9,79.3 501.1,87.8 501.1,295.9 	"/>
</g>
<g id="Layer_10">
	<polygon class="st16" points="504,167 556.3,138.7 506.8,114.7 487,120.3 464.3,109 411.9,128.8 431.8,138.7 348.2,184 
		416.4,211.1 443.1,196.8 457.2,202.4 513.9,172.7 	"/>
</g>
<g id="Layer_9">
	<polygon class="st17" points="193.9,283.1 239.2,254.8 283.1,273.2 253.4,293 257.6,295.9 242.1,307.2 	"/>
</g>
</svg>
