<?xml version="1.0" encoding="utf-8"?>
<!-- Generator: Adobe Illustrator 21.1.0, SVG Export Plug-In . SVG Version: 6.00 Build 0)  -->
<svg version="1.1" xmlns="http://www.w3.org/2000/svg" xmlns:xlink="http://www.w3.org/1999/xlink" x="0px" y="0px" width="577.8px"
	 height="716.3px" viewBox="0 0 577.8 716.3" style="enable-background:new 0 0 577.8 716.3;" xml:space="preserve">
<style type="text/css">
	.st0{fill:#75528B;}
	.st1{fill:#A3A4CD;}
	.st2{fill:#F5FFFF;}
	.st3{fill:#F0F9F8;}
	.st4{fill:#94C0B2;}
	.st5{fill:#AED180;}
	.st6{fill:#0E995C;}
	.st7{fill:#FFFFFF;}
	.st8{fill:#C8EBFF;}
	.st9{fill:#D2CCA3;}
	.st10{fill:#F1FECD;}
	.st11{fill:#E1E4DF;}
	.st12{fill:#ECBD3B;}
	.st13{fill:#8EBE3E;}
	.st14{fill:#3970AB;}
	.st15{fill:#0E8944;}
	.st16{fill:#339DD5;}
	.st17{fill:#EBB752;}
	.st18{fill:#E7EF2F;}
	.st19{fill:#8BC057;}
</style>
<g id="Layer_4">
	<polygon class="st0" points="52,661.3 148,611.3 140,607.3 162,596.3 191,609.3 141,635.3 149,640.3 133,649.3 124,643.3 69,672.3 
			"/>
	<polygon class="st1" points="162,599.3 162,550.3 177,556.3 177,606.3 	"/>
	<polygon class="st2" points="234,569.3 234,413.3 249,419.3 249,576.3 	"/>
	<polygon class="st3" points="258,504.3 258,289.3 273,295.3 273,511.3 	"/>
	<polygon class="st4" points="192,510.3 192,461.3 207,467.3 207,517.3 	"/>
	<polygon class="st5" points="169,451.3 169,402.3 184,408.3 184,458.3 	"/>
	<polygon class="st6" points="169,350.3 169,301.3 184,307.3 184,357.3 	"/>
	<polygon class="st7" points="330,180.3 330,105.3 345,111.3 345,187.3 	"/>
	<polygon class="st8" points="386,234.3 386,88.3 401,94.3 401,241.3 	"/>
	<polygon class="st7" points="525,266.3 525,157.3 540,163.3 540,273.3 	"/>
	<polygon class="st9" points="384,423.3 384,314.3 399,320.3 399,430.3 	"/>
	<polygon class="st10" points="337,404.3 337,261.3 352,267.3 352,411.3 	"/>
	<polygon class="st11" points="196,273.3 196,224.3 211,230.3 211,280.3 	"/>
	<polygon class="st12" points="403,150.3 440,130.3 405,113.3 391,117.3 375,109.3 338,123.3 352,130.3 293,162.3 341.2,181.4 
		360,171.3 370,175.3 410,154.3 	"/>
	<polygon class="st13" points="53,390.3 47,411.3 55,414.3 60,400.3 96,411.3 68,415.3 74,420.3 116,415.3 	"/>
</g>
<g id="Layer_2">
	<polygon class="st14" points="178,565.3 206,576.3 214,572.3 238,582.3 255,572.3 232,563.3 237,560.3 212,549.3 223,543.3 
		266,558.3 280,548.3 270,544.3 284,535.3 273,530.3 314,507.3 273,492.3 420,414.3 398,404.3 298,455.3 290,452.3 271,462.3 
		279,465.3 179,518.3 198,525.3 147,551.3 	"/>
</g>
<g id="Layer_3">
	<polygon class="st15" points="103,470.3 149,489.3 221,454.3 176,436.3 	"/>
</g>
<g id="Layer_5">
	<polygon class="st13" points="142,431.3 189,406.3 209,417.3 198,423.3 287,460.3 321,441.3 356,455.3 408,427.3 382,416.3 
		393,409.3 376,402.3 364,408.3 329,394.3 310,404.3 263,385.3 273,379.3 251,371.3 237,379.3 214,367.3 131,409.3 118,404.3 
		249,338.3 228,329.3 264,310.3 277,315.3 295,305.3 284,300.3 290,297.3 263,285.3 256,289.3 237,281.3 221,290.3 240,298.3 
		178,329.3 165,323.3 149,332.3 143,329.3 123,339.3 118,336.3 75,358.3 82,362.3 59,374.3 75,381.3 63,388.3 71,392.3 81,387.3 
		100,396.3 83,407.3 	"/>
</g>
<g id="Layer_6">
	<polygon class="st16" points="270,321.3 309,295.3 301,292.3 309,287.3 318,289.3 313,294.3 336,304.3 344,301.3 354,303.3 
		340,313.3 375,325.3 368,325.3 368,348.3 359,348.3 359,330.3 338,329.3 336,349.3 308,349.3 304.6,380.3 386,375.3 386,369.3 
		409,367.3 413,356.3 457,352.3 457,322.3 471,329.3 501,315.3 510,320.3 531,310.3 520,304.3 568,280.3 555,273.3 564,267.3 
		532,252.3 503,269.3 357,215.3 325,232.3 313,222.3 318,220.3 322,223.3 332,218.3 335,222.3 362,207.3 332,196.3 349,185.3 
		322,175.3 278,200.3 245,187.3 227,197.3 268,212.3 262,215.3 267,220.3 222,248.3 256,260.3 274,247.3 279,254.3 258,267.3 
		295,280.3 284,285.3 265,278.3 227,302.3 	"/>
</g>
<g id="Layer_7">
	<polygon class="st17" points="473,105.3 525,125.3 440,171.3 465,182.3 471,180.3 477,182.3 505,167.3 540,182.4 566,165.3 
		528,147.3 572,122.3 550,112.3 544,116.3 490,98.3 509,88.3 469,72.3 450,82.3 432,77.3 457,64.3 444,57.3 400,81.3 398,79.3 
		418,67.3 414,64.3 438,50.3 390,32.3 370,42.3 356,35.3 271,81.3 308,96.3 298,101.3 314,107.3 308,110.3 335,121.3 366,102.3 
		356,96.3 360,91.3 386,103.7 415,93.3 435,98.3 428,103.3 451,111.3 457,105.3 467,111.3 	"/>
</g>
<g id="Layer_8">
	<path class="st18" d="M345,260.3l24,12l27-17l-1-12l25-2v-21c0,0-51,7-50,6s2-14,2-14l-21,2v15h-13v21l13-2L345,260.3z"/>
</g>
<g id="Layer_9">
	<polygon class="st19" points="184,232.3 216,212.3 247,225.3 226,239.3 229,241.3 218,249.3 	"/>
</g>
</svg>
